<svg width="1440" height="1024" viewBox="0 0 1440 1024" fill="none" xmlns="http://www.w3.org/2000/svg">
<path d="M-53 -156.69C-53 -165.698 -46.0783 -173 -37.54 -173H-6.62C1.91832 -173 8.84 -165.698 8.84 -156.69V-124.071C8.84 -115.064 1.91832 -107.762 -6.62 -107.762H-37.54C-46.0783 -107.762 -53 -115.064 -53 -124.071V-156.69Z" fill="#14B8A6" fill-opacity="0.025"/>
<path d="M70.68 -156.69C70.68 -165.698 77.6017 -173 86.14 -173H117.06C125.598 -173 132.52 -165.698 132.52 -156.69V-124.071C132.52 -115.064 125.598 -107.762 117.06 -107.762H86.14C77.6017 -107.762 70.68 -115.064 70.68 -124.071V-156.69Z" fill="#14B8A6" fill-opacity="0.025"/>
<path d="M194.36 -156.69C194.36 -165.698 201.282 -173 209.82 -173H240.74C249.278 -173 256.2 -165.698 256.2 -156.69V-124.071C256.2 -115.064 249.278 -107.762 240.74 -107.762H209.82C201.282 -107.762 194.36 -115.064 194.36 -124.071V-156.69Z" fill="#14B8A6" fill-opacity="0.025"/>
<path d="M318.04 -156.69C318.04 -165.698 324.962 -173 333.5 -173H364.42C372.958 -173 379.88 -165.698 379.88 -156.69V-124.071C379.88 -115.064 372.958 -107.762 364.42 -107.762H333.5C324.962 -107.762 318.04 -115.064 318.04 -124.071V-156.69Z" fill="#14B8A6" fill-opacity="0.025"/>
<path d="M441.72 -156.69C441.72 -165.698 448.642 -173 457.18 -173H488.1C496.638 -173 503.56 -165.698 503.56 -156.69V-124.071C503.56 -115.064 496.638 -107.762 488.1 -107.762H457.18C448.642 -107.762 441.72 -115.064 441.72 -124.071V-156.69Z" fill="#14B8A6" fill-opacity="0.025"/>
<path d="M565.4 -156.69C565.4 -165.698 572.322 -173 580.86 -173H611.78C620.318 -173 627.24 -165.698 627.24 -156.69V-124.071C627.24 -115.064 620.318 -107.762 611.78 -107.762H580.86C572.322 -107.762 565.4 -115.064 565.4 -124.071V-156.69Z" fill="#14B8A6" fill-opacity="0.025"/>
<path d="M689.08 -156.69C689.08 -165.698 696.002 -173 704.54 -173H735.46C743.998 -173 750.92 -165.698 750.92 -156.69V-124.071C750.92 -115.064 743.998 -107.762 735.46 -107.762H704.54C696.002 -107.762 689.08 -115.064 689.08 -124.071V-156.69Z" fill="#14B8A6" fill-opacity="0.025"/>
<path d="M812.76 -156.69C812.76 -165.698 819.682 -173 828.22 -173H859.14C867.678 -173 874.6 -165.698 874.6 -156.69V-124.071C874.6 -115.064 867.678 -107.762 859.14 -107.762H828.22C819.682 -107.762 812.76 -115.064 812.76 -124.071V-156.69Z" fill="#14B8A6" fill-opacity="0.025"/>
<path d="M936.44 -156.69C936.44 -165.698 943.362 -173 951.9 -173H982.82C991.358 -173 998.28 -165.698 998.28 -156.69V-124.071C998.28 -115.064 991.358 -107.762 982.82 -107.762H951.9C943.362 -107.762 936.44 -115.064 936.44 -124.071V-156.69Z" fill="#14B8A6" fill-opacity="0.025"/>
<path d="M1060.12 -156.69C1060.12 -165.698 1067.04 -173 1075.58 -173H1106.5C1115.04 -173 1121.96 -165.698 1121.96 -156.69V-124.071C1121.96 -115.064 1115.04 -107.762 1106.5 -107.762H1075.58C1067.04 -107.762 1060.12 -115.064 1060.12 -124.071V-156.69Z" fill="#14B8A6" fill-opacity="0.025"/>
<path d="M1183.8 -156.69C1183.8 -165.698 1190.72 -173 1199.26 -173H1230.18C1238.72 -173 1245.64 -165.698 1245.64 -156.69V-124.071C1245.64 -115.064 1238.72 -107.762 1230.18 -107.762H1199.26C1190.72 -107.762 1183.8 -115.064 1183.8 -124.071V-156.69Z" fill="#14B8A6" fill-opacity="0.025"/>
<path d="M1307.48 -156.69C1307.48 -165.698 1314.4 -173 1322.94 -173H1353.86C1362.4 -173 1369.32 -165.698 1369.32 -156.69V-124.071C1369.32 -115.064 1362.4 -107.762 1353.86 -107.762H1322.94C1314.4 -107.762 1307.48 -115.064 1307.48 -124.071V-156.69Z" fill="#14B8A6" fill-opacity="0.025"/>
<path d="M1431.16 -156.69C1431.16 -165.698 1438.08 -173 1446.62 -173H1477.54C1486.08 -173 1493 -165.698 1493 -156.69V-124.071C1493 -115.064 1486.08 -107.762 1477.54 -107.762H1446.62C1438.08 -107.762 1431.16 -115.064 1431.16 -124.071V-156.69Z" fill="#14B8A6" fill-opacity="0.025"/>
<path d="M-53 -26.2143C-53 -35.2218 -46.0783 -42.5238 -37.54 -42.5238H-6.62C1.91832 -42.5238 8.84 -35.2218 8.84 -26.2143V6.40477C8.84 15.4123 1.91832 22.7143 -6.62 22.7143H-37.54C-46.0783 22.7143 -53 15.4123 -53 6.40477V-26.2143Z" fill="#14B8A6" fill-opacity="0.025"/>
<path d="M70.68 -26.2143C70.68 -35.2218 77.6017 -42.5238 86.14 -42.5238H117.06C125.598 -42.5238 132.52 -35.2218 132.52 -26.2143V6.40477C132.52 15.4123 125.598 22.7143 117.06 22.7143H86.14C77.6017 22.7143 70.68 15.4123 70.68 6.40477V-26.2143Z" fill="#14B8A6" fill-opacity="0.025"/>
<path d="M194.36 -26.2143C194.36 -35.2218 201.282 -42.5238 209.82 -42.5238H240.74C249.278 -42.5238 256.2 -35.2218 256.2 -26.2143V6.40477C256.2 15.4123 249.278 22.7143 240.74 22.7143H209.82C201.282 22.7143 194.36 15.4123 194.36 6.40477V-26.2143Z" fill="#14B8A6" fill-opacity="0.025"/>
<path d="M318.04 -26.2143C318.04 -35.2218 324.962 -42.5238 333.5 -42.5238H364.42C372.958 -42.5238 379.88 -35.2218 379.88 -26.2143V6.40477C379.88 15.4123 372.958 22.7143 364.42 22.7143H333.5C324.962 22.7143 318.04 15.4123 318.04 6.40477V-26.2143Z" fill="#14B8A6" fill-opacity="0.025"/>
<path d="M441.72 -26.2143C441.72 -35.2218 448.642 -42.5238 457.18 -42.5238H488.1C496.638 -42.5238 503.56 -35.2218 503.56 -26.2143V6.40477C503.56 15.4123 496.638 22.7143 488.1 22.7143H457.18C448.642 22.7143 441.72 15.4123 441.72 6.40477V-26.2143Z" fill="#14B8A6" fill-opacity="0.025"/>
<path d="M565.4 -26.2143C565.4 -35.2218 572.322 -42.5238 580.86 -42.5238H611.78C620.318 -42.5238 627.24 -35.2218 627.24 -26.2143V6.40477C627.24 15.4123 620.318 22.7143 611.78 22.7143H580.86C572.322 22.7143 565.4 15.4123 565.4 6.40477V-26.2143Z" fill="#14B8A6" fill-opacity="0.025"/>
<path d="M689.08 -26.2143C689.08 -35.2218 696.002 -42.5238 704.54 -42.5238H735.46C743.998 -42.5238 750.92 -35.2218 750.92 -26.2143V6.40477C750.92 15.4123 743.998 22.7143 735.46 22.7143H704.54C696.002 22.7143 689.08 15.4123 689.08 6.40477V-26.2143Z" fill="#14B8A6" fill-opacity="0.025"/>
<path d="M812.76 -26.2143C812.76 -35.2218 819.682 -42.5238 828.22 -42.5238H859.14C867.678 -42.5238 874.6 -35.2218 874.6 -26.2143V6.40477C874.6 15.4123 867.678 22.7143 859.14 22.7143H828.22C819.682 22.7143 812.76 15.4123 812.76 6.40477V-26.2143Z" fill="#14B8A6" fill-opacity="0.025"/>
<path d="M936.44 -26.2143C936.44 -35.2218 943.362 -42.5238 951.9 -42.5238H982.82C991.358 -42.5238 998.28 -35.2218 998.28 -26.2143V6.40477C998.28 15.4123 991.358 22.7143 982.82 22.7143H951.9C943.362 22.7143 936.44 15.4123 936.44 6.40477V-26.2143Z" fill="#14B8A6" fill-opacity="0.025"/>
<path d="M1060.12 -26.2143C1060.12 -35.2218 1067.04 -42.5238 1075.58 -42.5238H1106.5C1115.04 -42.5238 1121.96 -35.2218 1121.96 -26.2143V6.40477C1121.96 15.4123 1115.04 22.7143 1106.5 22.7143H1075.58C1067.04 22.7143 1060.12 15.4123 1060.12 6.40477V-26.2143Z" fill="#14B8A6" fill-opacity="0.025"/>
<path d="M1183.8 -26.2143C1183.8 -35.2218 1190.72 -42.5238 1199.26 -42.5238H1230.18C1238.72 -42.5238 1245.64 -35.2218 1245.64 -26.2143V6.40477C1245.64 15.4123 1238.72 22.7143 1230.18 22.7143H1199.26C1190.72 22.7143 1183.8 15.4123 1183.8 6.40477V-26.2143Z" fill="#14B8A6" fill-opacity="0.025"/>
<path d="M1307.48 -26.2143C1307.48 -35.2218 1314.4 -42.5238 1322.94 -42.5238H1353.86C1362.4 -42.5238 1369.32 -35.2218 1369.32 -26.2143V6.40477C1369.32 15.4123 1362.4 22.7143 1353.86 22.7143H1322.94C1314.4 22.7143 1307.48 15.4123 1307.48 6.40477V-26.2143Z" fill="#14B8A6" fill-opacity="0.025"/>
<path d="M1431.16 -26.2143C1431.16 -35.2218 1438.08 -42.5238 1446.62 -42.5238H1477.54C1486.08 -42.5238 1493 -35.2218 1493 -26.2143V6.40477C1493 15.4123 1486.08 22.7143 1477.54 22.7143H1446.62C1438.08 22.7143 1431.16 15.4123 1431.16 6.40477V-26.2143Z" fill="#14B8A6" fill-opacity="0.025"/>
<path d="M-53 104.262C-53 95.2544 -46.0783 87.9524 -37.54 87.9524H-6.62C1.91832 87.9524 8.84 95.2544 8.84 104.262V136.881C8.84 145.888 1.91832 153.19 -6.62 153.19H-37.54C-46.0783 153.19 -53 145.888 -53 136.881V104.262Z" fill="#14B8A6" fill-opacity="0.025"/>
<path d="M70.68 104.262C70.68 95.2544 77.6017 87.9524 86.14 87.9524H117.06C125.598 87.9524 132.52 95.2544 132.52 104.262V136.881C132.52 145.888 125.598 153.19 117.06 153.19H86.14C77.6017 153.19 70.68 145.888 70.68 136.881V104.262Z" fill="#14B8A6" fill-opacity="0.025"/>
<path d="M194.36 104.262C194.36 95.2544 201.282 87.9524 209.82 87.9524H240.74C249.278 87.9524 256.2 95.2544 256.2 104.262V136.881C256.2 145.888 249.278 153.19 240.74 153.19H209.82C201.282 153.19 194.36 145.888 194.36 136.881V104.262Z" fill="#14B8A6" fill-opacity="0.025"/>
<path d="M318.04 104.262C318.04 95.2544 324.962 87.9524 333.5 87.9524H364.42C372.958 87.9524 379.88 95.2544 379.88 104.262V136.881C379.88 145.888 372.958 153.19 364.42 153.19H333.5C324.962 153.19 318.04 145.888 318.04 136.881V104.262Z" fill="#14B8A6" fill-opacity="0.025"/>
<path d="M441.72 104.262C441.72 95.2544 448.642 87.9524 457.18 87.9524H488.1C496.638 87.9524 503.56 95.2544 503.56 104.262V136.881C503.56 145.888 496.638 153.19 488.1 153.19H457.18C448.642 153.19 441.72 145.888 441.72 136.881V104.262Z" fill="#14B8A6" fill-opacity="0.025"/>
<path d="M565.4 104.262C565.4 95.2544 572.322 87.9524 580.86 87.9524H611.78C620.318 87.9524 627.24 95.2544 627.24 104.262V136.881C627.24 145.888 620.318 153.19 611.78 153.19H580.86C572.322 153.19 565.4 145.888 565.4 136.881V104.262Z" fill="#14B8A6" fill-opacity="0.025"/>
<path d="M689.08 104.262C689.08 95.2544 696.002 87.9524 704.54 87.9524H735.46C743.998 87.9524 750.92 95.2544 750.92 104.262V136.881C750.92 145.888 743.998 153.19 735.46 153.19H704.54C696.002 153.19 689.08 145.888 689.08 136.881V104.262Z" fill="#14B8A6" fill-opacity="0.025"/>
<path d="M812.76 104.262C812.76 95.2544 819.682 87.9524 828.22 87.9524H859.14C867.678 87.9524 874.6 95.2544 874.6 104.262V136.881C874.6 145.888 867.678 153.19 859.14 153.19H828.22C819.682 153.19 812.76 145.888 812.76 136.881V104.262Z" fill="#14B8A6" fill-opacity="0.025"/>
<path d="M936.44 104.262C936.44 95.2544 943.362 87.9524 951.9 87.9524H982.82C991.358 87.9524 998.28 95.2544 998.28 104.262V136.881C998.28 145.888 991.358 153.19 982.82 153.19H951.9C943.362 153.19 936.44 145.888 936.44 136.881V104.262Z" fill="#14B8A6" fill-opacity="0.025"/>
<path d="M1060.12 104.262C1060.12 95.2544 1067.04 87.9524 1075.58 87.9524H1106.5C1115.04 87.9524 1121.96 95.2544 1121.96 104.262V136.881C1121.96 145.888 1115.04 153.19 1106.5 153.19H1075.58C1067.04 153.19 1060.12 145.888 1060.12 136.881V104.262Z" fill="#14B8A6" fill-opacity="0.025"/>
<path d="M1183.8 104.262C1183.8 95.2544 1190.72 87.9524 1199.26 87.9524H1230.18C1238.72 87.9524 1245.64 95.2544 1245.64 104.262V136.881C1245.64 145.888 1238.72 153.19 1230.18 153.19H1199.26C1190.72 153.19 1183.8 145.888 1183.8 136.881V104.262Z" fill="#14B8A6" fill-opacity="0.025"/>
<path d="M1307.48 104.262C1307.48 95.2544 1314.4 87.9524 1322.94 87.9524H1353.86C1362.4 87.9524 1369.32 95.2544 1369.32 104.262V136.881C1369.32 145.888 1362.4 153.19 1353.86 153.19H1322.94C1314.4 153.19 1307.48 145.888 1307.48 136.881V104.262Z" fill="#14B8A6" fill-opacity="0.025"/>
<path d="M1431.16 104.262C1431.16 95.2544 1438.08 87.9524 1446.62 87.9524H1477.54C1486.08 87.9524 1493 95.2544 1493 104.262V136.881C1493 145.888 1486.08 153.19 1477.54 153.19H1446.62C1438.08 153.19 1431.16 145.888 1431.16 136.881V104.262Z" fill="#14B8A6" fill-opacity="0.025"/>
<path d="M-53 234.738C-53 225.731 -46.0783 218.429 -37.54 218.429H-6.62C1.91832 218.429 8.84 225.731 8.84 234.738V267.357C8.84 276.365 1.91832 283.667 -6.62 283.667H-37.54C-46.0783 283.667 -53 276.365 -53 267.357V234.738Z" fill="#14B8A6" fill-opacity="0.025"/>
<path d="M70.68 234.738C70.68 225.731 77.6017 218.429 86.14 218.429H117.06C125.598 218.429 132.52 225.731 132.52 234.738V267.357C132.52 276.365 125.598 283.667 117.06 283.667H86.14C77.6017 283.667 70.68 276.365 70.68 267.357V234.738Z" fill="#14B8A6" fill-opacity="0.025"/>
<path d="M194.36 234.738C194.36 225.731 201.282 218.429 209.82 218.429H240.74C249.278 218.429 256.2 225.731 256.2 234.738V267.357C256.2 276.365 249.278 283.667 240.74 283.667H209.82C201.282 283.667 194.36 276.365 194.36 267.357V234.738Z" fill="#14B8A6" fill-opacity="0.025"/>
<path d="M318.04 234.738C318.04 225.731 324.962 218.429 333.5 218.429H364.42C372.958 218.429 379.88 225.731 379.88 234.738V267.357C379.88 276.365 372.958 283.667 364.42 283.667H333.5C324.962 283.667 318.04 276.365 318.04 267.357V234.738Z" fill="#14B8A6" fill-opacity="0.025"/>
<path d="M441.72 234.738C441.72 225.731 448.642 218.429 457.18 218.429H488.1C496.638 218.429 503.56 225.731 503.56 234.738V267.357C503.56 276.365 496.638 283.667 488.1 283.667H457.18C448.642 283.667 441.72 276.365 441.72 267.357V234.738Z" fill="#14B8A6" fill-opacity="0.025"/>
<path d="M565.4 234.738C565.4 225.731 572.322 218.429 580.86 218.429H611.78C620.318 218.429 627.24 225.731 627.24 234.738V267.357C627.24 276.365 620.318 283.667 611.78 283.667H580.86C572.322 283.667 565.4 276.365 565.4 267.357V234.738Z" fill="#14B8A6" fill-opacity="0.025"/>
<path d="M689.08 234.738C689.08 225.731 696.002 218.429 704.54 218.429H735.46C743.998 218.429 750.92 225.731 750.92 234.738V267.357C750.92 276.365 743.998 283.667 735.46 283.667H704.54C696.002 283.667 689.08 276.365 689.08 267.357V234.738Z" fill="#14B8A6" fill-opacity="0.025"/>
<path d="M812.76 234.738C812.76 225.731 819.682 218.429 828.22 218.429H859.14C867.678 218.429 874.6 225.731 874.6 234.738V267.357C874.6 276.365 867.678 283.667 859.14 283.667H828.22C819.682 283.667 812.76 276.365 812.76 267.357V234.738Z" fill="#14B8A6" fill-opacity="0.025"/>
<path d="M936.44 234.738C936.44 225.731 943.362 218.429 951.9 218.429H982.82C991.358 218.429 998.28 225.731 998.28 234.738V267.357C998.28 276.365 991.358 283.667 982.82 283.667H951.9C943.362 283.667 936.44 276.365 936.44 267.357V234.738Z" fill="#14B8A6" fill-opacity="0.025"/>
<path d="M1060.12 234.738C1060.12 225.731 1067.04 218.429 1075.58 218.429H1106.5C1115.04 218.429 1121.96 225.731 1121.96 234.738V267.357C1121.96 276.365 1115.04 283.667 1106.5 283.667H1075.58C1067.04 283.667 1060.12 276.365 1060.12 267.357V234.738Z" fill="#14B8A6" fill-opacity="0.025"/>
<path d="M1183.8 234.738C1183.8 225.731 1190.72 218.429 1199.26 218.429H1230.18C1238.72 218.429 1245.64 225.731 1245.64 234.738V267.357C1245.64 276.365 1238.72 283.667 1230.18 283.667H1199.26C1190.72 283.667 1183.8 276.365 1183.8 267.357V234.738Z" fill="#14B8A6" fill-opacity="0.025"/>
<path d="M1307.48 234.738C1307.48 225.731 1314.4 218.429 1322.94 218.429H1353.86C1362.4 218.429 1369.32 225.731 1369.32 234.738V267.357C1369.32 276.365 1362.4 283.667 1353.86 283.667H1322.94C1314.4 283.667 1307.48 276.365 1307.48 267.357V234.738Z" fill="#14B8A6" fill-opacity="0.025"/>
<path d="M1431.16 234.738C1431.16 225.731 1438.08 218.429 1446.62 218.429H1477.54C1486.08 218.429 1493 225.731 1493 234.738V267.357C1493 276.365 1486.08 283.667 1477.54 283.667H1446.62C1438.08 283.667 1431.16 276.365 1431.16 267.357V234.738Z" fill="#14B8A6" fill-opacity="0.025"/>
<path d="M-53 365.214C-53 356.207 -46.0783 348.905 -37.54 348.905H-6.62C1.91832 348.905 8.84 356.207 8.84 365.214V397.833C8.84 406.841 1.91832 414.143 -6.62 414.143H-37.54C-46.0783 414.143 -53 406.841 -53 397.833V365.214Z" fill="#14B8A6" fill-opacity="0.025"/>
<path d="M70.68 365.214C70.68 356.207 77.6017 348.905 86.14 348.905H117.06C125.598 348.905 132.52 356.207 132.52 365.214V397.833C132.52 406.841 125.598 414.143 117.06 414.143H86.14C77.6017 414.143 70.68 406.841 70.68 397.833V365.214Z" fill="#14B8A6" fill-opacity="0.025"/>
<path d="M194.36 365.214C194.36 356.207 201.282 348.905 209.82 348.905H240.74C249.278 348.905 256.2 356.207 256.2 365.214V397.833C256.2 406.841 249.278 414.143 240.74 414.143H209.82C201.282 414.143 194.36 406.841 194.36 397.833V365.214Z" fill="#14B8A6" fill-opacity="0.025"/>
<path d="M318.04 365.214C318.04 356.207 324.962 348.905 333.5 348.905H364.42C372.958 348.905 379.88 356.207 379.88 365.214V397.833C379.88 406.841 372.958 414.143 364.42 414.143H333.5C324.962 414.143 318.04 406.841 318.04 397.833V365.214Z" fill="#14B8A6" fill-opacity="0.025"/>
<path d="M441.72 365.214C441.72 356.207 448.642 348.905 457.18 348.905H488.1C496.638 348.905 503.56 356.207 503.56 365.214V397.833C503.56 406.841 496.638 414.143 488.1 414.143H457.18C448.642 414.143 441.72 406.841 441.72 397.833V365.214Z" fill="#14B8A6" fill-opacity="0.025"/>
<path d="M565.4 365.214C565.4 356.207 572.322 348.905 580.86 348.905H611.78C620.318 348.905 627.24 356.207 627.24 365.214V397.833C627.24 406.841 620.318 414.143 611.78 414.143H580.86C572.322 414.143 565.4 406.841 565.4 397.833V365.214Z" fill="#14B8A6" fill-opacity="0.025"/>
<path d="M689.08 365.214C689.08 356.207 696.002 348.905 704.54 348.905H735.46C743.998 348.905 750.92 356.207 750.92 365.214V397.833C750.92 406.841 743.998 414.143 735.46 414.143H704.54C696.002 414.143 689.08 406.841 689.08 397.833V365.214Z" fill="#14B8A6" fill-opacity="0.025"/>
<path d="M812.76 365.214C812.76 356.207 819.682 348.905 828.22 348.905H859.14C867.678 348.905 874.6 356.207 874.6 365.214V397.833C874.6 406.841 867.678 414.143 859.14 414.143H828.22C819.682 414.143 812.76 406.841 812.76 397.833V365.214Z" fill="#14B8A6" fill-opacity="0.025"/>
<path d="M936.44 365.214C936.44 356.207 943.362 348.905 951.9 348.905H982.82C991.358 348.905 998.28 356.207 998.28 365.214V397.833C998.28 406.841 991.358 414.143 982.82 414.143H951.9C943.362 414.143 936.44 406.841 936.44 397.833V365.214Z" fill="#14B8A6" fill-opacity="0.025"/>
<path d="M1060.12 365.214C1060.12 356.207 1067.04 348.905 1075.58 348.905H1106.5C1115.04 348.905 1121.96 356.207 1121.96 365.214V397.833C1121.96 406.841 1115.04 414.143 1106.5 414.143H1075.58C1067.04 414.143 1060.12 406.841 1060.12 397.833V365.214Z" fill="#14B8A6" fill-opacity="0.025"/>
<path d="M1183.8 365.214C1183.8 356.207 1190.72 348.905 1199.26 348.905H1230.18C1238.72 348.905 1245.64 356.207 1245.64 365.214V397.833C1245.64 406.841 1238.72 414.143 1230.18 414.143H1199.26C1190.72 414.143 1183.8 406.841 1183.8 397.833V365.214Z" fill="#14B8A6" fill-opacity="0.025"/>
<path d="M1307.48 365.214C1307.48 356.207 1314.4 348.905 1322.94 348.905H1353.86C1362.4 348.905 1369.32 356.207 1369.32 365.214V397.833C1369.32 406.841 1362.4 414.143 1353.86 414.143H1322.94C1314.4 414.143 1307.48 406.841 1307.48 397.833V365.214Z" fill="#14B8A6" fill-opacity="0.025"/>
<path d="M1431.16 365.214C1431.16 356.207 1438.08 348.905 1446.62 348.905H1477.54C1486.08 348.905 1493 356.207 1493 365.214V397.833C1493 406.841 1486.08 414.143 1477.54 414.143H1446.62C1438.08 414.143 1431.16 406.841 1431.16 397.833V365.214Z" fill="#14B8A6" fill-opacity="0.025"/>
<path d="M-53 495.691C-53 486.683 -46.0783 479.381 -37.54 479.381H-6.62C1.91832 479.381 8.84 486.683 8.84 495.691V528.31C8.84 537.317 1.91832 544.619 -6.62 544.619H-37.54C-46.0783 544.619 -53 537.317 -53 528.31V495.691Z" fill="#14B8A6" fill-opacity="0.025"/>
<path d="M70.68 495.691C70.68 486.683 77.6017 479.381 86.14 479.381H117.06C125.598 479.381 132.52 486.683 132.52 495.691V528.31C132.52 537.317 125.598 544.619 117.06 544.619H86.14C77.6017 544.619 70.68 537.317 70.68 528.31V495.691Z" fill="#14B8A6" fill-opacity="0.025"/>
<path d="M194.36 495.691C194.36 486.683 201.282 479.381 209.82 479.381H240.74C249.278 479.381 256.2 486.683 256.2 495.691V528.31C256.2 537.317 249.278 544.619 240.74 544.619H209.82C201.282 544.619 194.36 537.317 194.36 528.31V495.691Z" fill="#14B8A6" fill-opacity="0.025"/>
<path d="M318.04 495.691C318.04 486.683 324.962 479.381 333.5 479.381H364.42C372.958 479.381 379.88 486.683 379.88 495.691V528.31C379.88 537.317 372.958 544.619 364.42 544.619H333.5C324.962 544.619 318.04 537.317 318.04 528.31V495.691Z" fill="#14B8A6" fill-opacity="0.025"/>
<path d="M441.72 495.691C441.72 486.683 448.642 479.381 457.18 479.381H488.1C496.638 479.381 503.56 486.683 503.56 495.691V528.31C503.56 537.317 496.638 544.619 488.1 544.619H457.18C448.642 544.619 441.72 537.317 441.72 528.31V495.691Z" fill="#14B8A6" fill-opacity="0.025"/>
<path d="M565.4 495.691C565.4 486.683 572.322 479.381 580.86 479.381H611.78C620.318 479.381 627.24 486.683 627.24 495.691V528.31C627.24 537.317 620.318 544.619 611.78 544.619H580.86C572.322 544.619 565.4 537.317 565.4 528.31V495.691Z" fill="#14B8A6" fill-opacity="0.025"/>
<path d="M689.08 495.691C689.08 486.683 696.002 479.381 704.54 479.381H735.46C743.998 479.381 750.92 486.683 750.92 495.691V528.31C750.92 537.317 743.998 544.619 735.46 544.619H704.54C696.002 544.619 689.08 537.317 689.08 528.31V495.691Z" fill="#14B8A6" fill-opacity="0.025"/>
<path d="M812.76 495.691C812.76 486.683 819.682 479.381 828.22 479.381H859.14C867.678 479.381 874.6 486.683 874.6 495.691V528.31C874.6 537.317 867.678 544.619 859.14 544.619H828.22C819.682 544.619 812.76 537.317 812.76 528.31V495.691Z" fill="#14B8A6" fill-opacity="0.025"/>
<path d="M936.44 495.691C936.44 486.683 943.362 479.381 951.9 479.381H982.82C991.358 479.381 998.28 486.683 998.28 495.691V528.31C998.28 537.317 991.358 544.619 982.82 544.619H951.9C943.362 544.619 936.44 537.317 936.44 528.31V495.691Z" fill="#14B8A6" fill-opacity="0.025"/>
<path d="M1060.12 495.691C1060.12 486.683 1067.04 479.381 1075.58 479.381H1106.5C1115.04 479.381 1121.96 486.683 1121.96 495.691V528.31C1121.96 537.317 1115.04 544.619 1106.5 544.619H1075.58C1067.04 544.619 1060.12 537.317 1060.12 528.31V495.691Z" fill="#14B8A6" fill-opacity="0.025"/>
<path d="M1183.8 495.691C1183.8 486.683 1190.72 479.381 1199.26 479.381H1230.18C1238.72 479.381 1245.64 486.683 1245.64 495.691V528.31C1245.64 537.317 1238.72 544.619 1230.18 544.619H1199.26C1190.72 544.619 1183.8 537.317 1183.8 528.31V495.691Z" fill="#14B8A6" fill-opacity="0.025"/>
<path d="M1307.48 495.691C1307.48 486.683 1314.4 479.381 1322.94 479.381H1353.86C1362.4 479.381 1369.32 486.683 1369.32 495.691V528.31C1369.32 537.317 1362.4 544.619 1353.86 544.619H1322.94C1314.4 544.619 1307.48 537.317 1307.48 528.31V495.691Z" fill="#14B8A6" fill-opacity="0.025"/>
<path d="M1431.16 495.691C1431.16 486.683 1438.08 479.381 1446.62 479.381H1477.54C1486.08 479.381 1493 486.683 1493 495.691V528.31C1493 537.317 1486.08 544.619 1477.54 544.619H1446.62C1438.08 544.619 1431.16 537.317 1431.16 528.31V495.691Z" fill="#14B8A6" fill-opacity="0.025"/>
<path d="M-53 626.167C-53 617.159 -46.0783 609.857 -37.54 609.857H-6.62C1.91832 609.857 8.84 617.159 8.84 626.167V658.786C8.84 667.793 1.91832 675.095 -6.62 675.095H-37.54C-46.0783 675.095 -53 667.793 -53 658.786V626.167Z" fill="#14B8A6" fill-opacity="0.025"/>
<path d="M70.68 626.167C70.68 617.159 77.6017 609.857 86.14 609.857H117.06C125.598 609.857 132.52 617.159 132.52 626.167V658.786C132.52 667.793 125.598 675.095 117.06 675.095H86.14C77.6017 675.095 70.68 667.793 70.68 658.786V626.167Z" fill="#14B8A6" fill-opacity="0.025"/>
<path d="M194.36 626.167C194.36 617.159 201.282 609.857 209.82 609.857H240.74C249.278 609.857 256.2 617.159 256.2 626.167V658.786C256.2 667.793 249.278 675.095 240.74 675.095H209.82C201.282 675.095 194.36 667.793 194.36 658.786V626.167Z" fill="#14B8A6" fill-opacity="0.025"/>
<path d="M318.04 626.167C318.04 617.159 324.962 609.857 333.5 609.857H364.42C372.958 609.857 379.88 617.159 379.88 626.167V658.786C379.88 667.793 372.958 675.095 364.42 675.095H333.5C324.962 675.095 318.04 667.793 318.04 658.786V626.167Z" fill="#14B8A6" fill-opacity="0.025"/>
<path d="M441.72 626.167C441.72 617.159 448.642 609.857 457.18 609.857H488.1C496.638 609.857 503.56 617.159 503.56 626.167V658.786C503.56 667.793 496.638 675.095 488.1 675.095H457.18C448.642 675.095 441.72 667.793 441.72 658.786V626.167Z" fill="#14B8A6" fill-opacity="0.025"/>
<path d="M565.4 626.167C565.4 617.159 572.322 609.857 580.86 609.857H611.78C620.318 609.857 627.24 617.159 627.24 626.167V658.786C627.24 667.793 620.318 675.095 611.78 675.095H580.86C572.322 675.095 565.4 667.793 565.4 658.786V626.167Z" fill="#14B8A6" fill-opacity="0.025"/>
<path d="M689.08 626.167C689.08 617.159 696.002 609.857 704.54 609.857H735.46C743.998 609.857 750.92 617.159 750.92 626.167V658.786C750.92 667.793 743.998 675.095 735.46 675.095H704.54C696.002 675.095 689.08 667.793 689.08 658.786V626.167Z" fill="#14B8A6" fill-opacity="0.025"/>
<path d="M812.76 626.167C812.76 617.159 819.682 609.857 828.22 609.857H859.14C867.678 609.857 874.6 617.159 874.6 626.167V658.786C874.6 667.793 867.678 675.095 859.14 675.095H828.22C819.682 675.095 812.76 667.793 812.76 658.786V626.167Z" fill="#14B8A6" fill-opacity="0.025"/>
<path d="M936.44 626.167C936.44 617.159 943.362 609.857 951.9 609.857H982.82C991.358 609.857 998.28 617.159 998.28 626.167V658.786C998.28 667.793 991.358 675.095 982.82 675.095H951.9C943.362 675.095 936.44 667.793 936.44 658.786V626.167Z" fill="#14B8A6" fill-opacity="0.025"/>
<path d="M1060.12 626.167C1060.12 617.159 1067.04 609.857 1075.58 609.857H1106.5C1115.04 609.857 1121.96 617.159 1121.96 626.167V658.786C1121.96 667.793 1115.04 675.095 1106.5 675.095H1075.58C1067.04 675.095 1060.12 667.793 1060.12 658.786V626.167Z" fill="#14B8A6" fill-opacity="0.025"/>
<path d="M1183.8 626.167C1183.8 617.159 1190.72 609.857 1199.26 609.857H1230.18C1238.72 609.857 1245.64 617.159 1245.64 626.167V658.786C1245.64 667.793 1238.72 675.095 1230.18 675.095H1199.26C1190.72 675.095 1183.8 667.793 1183.8 658.786V626.167Z" fill="#14B8A6" fill-opacity="0.025"/>
<path d="M1307.48 626.167C1307.48 617.159 1314.4 609.857 1322.94 609.857H1353.86C1362.4 609.857 1369.32 617.159 1369.32 626.167V658.786C1369.32 667.793 1362.4 675.095 1353.86 675.095H1322.94C1314.4 675.095 1307.48 667.793 1307.48 658.786V626.167Z" fill="#14B8A6" fill-opacity="0.025"/>
<path d="M1431.16 626.167C1431.16 617.159 1438.08 609.857 1446.62 609.857H1477.54C1486.08 609.857 1493 617.159 1493 626.167V658.786C1493 667.793 1486.08 675.095 1477.54 675.095H1446.62C1438.08 675.095 1431.16 667.793 1431.16 658.786V626.167Z" fill="#14B8A6" fill-opacity="0.025"/>
<path d="M-53 756.643C-53 747.635 -46.0783 740.333 -37.54 740.333H-6.62C1.91832 740.333 8.84 747.635 8.84 756.643V789.262C8.84 798.269 1.91832 805.571 -6.62 805.571H-37.54C-46.0783 805.571 -53 798.269 -53 789.262V756.643Z" fill="#14B8A6" fill-opacity="0.025"/>
<path d="M70.68 756.643C70.68 747.635 77.6017 740.333 86.14 740.333H117.06C125.598 740.333 132.52 747.635 132.52 756.643V789.262C132.52 798.269 125.598 805.571 117.06 805.571H86.14C77.6017 805.571 70.68 798.269 70.68 789.262V756.643Z" fill="#14B8A6" fill-opacity="0.025"/>
<path d="M194.36 756.643C194.36 747.635 201.282 740.333 209.82 740.333H240.74C249.278 740.333 256.2 747.635 256.2 756.643V789.262C256.2 798.269 249.278 805.571 240.74 805.571H209.82C201.282 805.571 194.36 798.269 194.36 789.262V756.643Z" fill="#14B8A6" fill-opacity="0.025"/>
<path d="M318.04 756.643C318.04 747.635 324.962 740.333 333.5 740.333H364.42C372.958 740.333 379.88 747.635 379.88 756.643V789.262C379.88 798.269 372.958 805.571 364.42 805.571H333.5C324.962 805.571 318.04 798.269 318.04 789.262V756.643Z" fill="#14B8A6" fill-opacity="0.025"/>
<path d="M441.72 756.643C441.72 747.635 448.642 740.333 457.18 740.333H488.1C496.638 740.333 503.56 747.635 503.56 756.643V789.262C503.56 798.269 496.638 805.571 488.1 805.571H457.18C448.642 805.571 441.72 798.269 441.72 789.262V756.643Z" fill="#14B8A6" fill-opacity="0.025"/>
<path d="M565.4 756.643C565.4 747.635 572.322 740.333 580.86 740.333H611.78C620.318 740.333 627.24 747.635 627.24 756.643V789.262C627.24 798.269 620.318 805.571 611.78 805.571H580.86C572.322 805.571 565.4 798.269 565.4 789.262V756.643Z" fill="#14B8A6" fill-opacity="0.025"/>
<path d="M689.08 756.643C689.08 747.635 696.002 740.333 704.54 740.333H735.46C743.998 740.333 750.92 747.635 750.92 756.643V789.262C750.92 798.269 743.998 805.571 735.46 805.571H704.54C696.002 805.571 689.08 798.269 689.08 789.262V756.643Z" fill="#14B8A6" fill-opacity="0.025"/>
<path d="M812.76 756.643C812.76 747.635 819.682 740.333 828.22 740.333H859.14C867.678 740.333 874.6 747.635 874.6 756.643V789.262C874.6 798.269 867.678 805.571 859.14 805.571H828.22C819.682 805.571 812.76 798.269 812.76 789.262V756.643Z" fill="#14B8A6" fill-opacity="0.025"/>
<path d="M936.44 756.643C936.44 747.635 943.362 740.333 951.9 740.333H982.82C991.358 740.333 998.28 747.635 998.28 756.643V789.262C998.28 798.269 991.358 805.571 982.82 805.571H951.9C943.362 805.571 936.44 798.269 936.44 789.262V756.643Z" fill="#14B8A6" fill-opacity="0.025"/>
<path d="M1060.12 756.643C1060.12 747.635 1067.04 740.333 1075.58 740.333H1106.5C1115.04 740.333 1121.96 747.635 1121.96 756.643V789.262C1121.96 798.269 1115.04 805.571 1106.5 805.571H1075.58C1067.04 805.571 1060.12 798.269 1060.12 789.262V756.643Z" fill="#14B8A6" fill-opacity="0.025"/>
<path d="M1183.8 756.643C1183.8 747.635 1190.72 740.333 1199.26 740.333H1230.18C1238.72 740.333 1245.64 747.635 1245.64 756.643V789.262C1245.64 798.269 1238.72 805.571 1230.18 805.571H1199.26C1190.72 805.571 1183.8 798.269 1183.8 789.262V756.643Z" fill="#14B8A6" fill-opacity="0.025"/>
<path d="M1307.48 756.643C1307.48 747.635 1314.4 740.333 1322.94 740.333H1353.86C1362.4 740.333 1369.32 747.635 1369.32 756.643V789.262C1369.32 798.269 1362.4 805.571 1353.86 805.571H1322.94C1314.4 805.571 1307.48 798.269 1307.48 789.262V756.643Z" fill="#14B8A6" fill-opacity="0.025"/>
<path d="M1431.16 756.643C1431.16 747.635 1438.08 740.333 1446.62 740.333H1477.54C1486.08 740.333 1493 747.635 1493 756.643V789.262C1493 798.269 1486.08 805.571 1477.54 805.571H1446.62C1438.08 805.571 1431.16 798.269 1431.16 789.262V756.643Z" fill="#14B8A6" fill-opacity="0.025"/>
<path d="M-53 887.119C-53 878.112 -46.0783 870.81 -37.54 870.81H-6.62C1.91832 870.81 8.84 878.112 8.84 887.119V919.738C8.84 928.746 1.91832 936.048 -6.62 936.048H-37.54C-46.0783 936.048 -53 928.746 -53 919.738V887.119Z" fill="#14B8A6" fill-opacity="0.025"/>
<path d="M70.68 887.119C70.68 878.112 77.6017 870.81 86.14 870.81H117.06C125.598 870.81 132.52 878.112 132.52 887.119V919.738C132.52 928.746 125.598 936.048 117.06 936.048H86.14C77.6017 936.048 70.68 928.746 70.68 919.738V887.119Z" fill="#14B8A6" fill-opacity="0.025"/>
<path d="M194.36 887.119C194.36 878.112 201.282 870.81 209.82 870.81H240.74C249.278 870.81 256.2 878.112 256.2 887.119V919.738C256.2 928.746 249.278 936.048 240.74 936.048H209.82C201.282 936.048 194.36 928.746 194.36 919.738V887.119Z" fill="#14B8A6" fill-opacity="0.025"/>
<path d="M318.04 887.119C318.04 878.112 324.962 870.81 333.5 870.81H364.42C372.958 870.81 379.88 878.112 379.88 887.119V919.738C379.88 928.746 372.958 936.048 364.42 936.048H333.5C324.962 936.048 318.04 928.746 318.04 919.738V887.119Z" fill="#14B8A6" fill-opacity="0.025"/>
<path d="M441.72 887.119C441.72 878.112 448.642 870.81 457.18 870.81H488.1C496.638 870.81 503.56 878.112 503.56 887.119V919.738C503.56 928.746 496.638 936.048 488.1 936.048H457.18C448.642 936.048 441.72 928.746 441.72 919.738V887.119Z" fill="#14B8A6" fill-opacity="0.025"/>
<path d="M565.4 887.119C565.4 878.112 572.322 870.81 580.86 870.81H611.78C620.318 870.81 627.24 878.112 627.24 887.119V919.738C627.24 928.746 620.318 936.048 611.78 936.048H580.86C572.322 936.048 565.4 928.746 565.4 919.738V887.119Z" fill="#14B8A6" fill-opacity="0.025"/>
<path d="M689.08 887.119C689.08 878.112 696.002 870.81 704.54 870.81H735.46C743.998 870.81 750.92 878.112 750.92 887.119V919.738C750.92 928.746 743.998 936.048 735.46 936.048H704.54C696.002 936.048 689.08 928.746 689.08 919.738V887.119Z" fill="#14B8A6" fill-opacity="0.025"/>
<path d="M812.76 887.119C812.76 878.112 819.682 870.81 828.22 870.81H859.14C867.678 870.81 874.6 878.112 874.6 887.119V919.738C874.6 928.746 867.678 936.048 859.14 936.048H828.22C819.682 936.048 812.76 928.746 812.76 919.738V887.119Z" fill="#14B8A6" fill-opacity="0.025"/>
<path d="M936.44 887.119C936.44 878.112 943.362 870.81 951.9 870.81H982.82C991.358 870.81 998.28 878.112 998.28 887.119V919.738C998.28 928.746 991.358 936.048 982.82 936.048H951.9C943.362 936.048 936.44 928.746 936.44 919.738V887.119Z" fill="#14B8A6" fill-opacity="0.025"/>
<path d="M1060.12 887.119C1060.12 878.112 1067.04 870.81 1075.58 870.81H1106.5C1115.04 870.81 1121.96 878.112 1121.96 887.119V919.738C1121.96 928.746 1115.04 936.048 1106.5 936.048H1075.58C1067.04 936.048 1060.12 928.746 1060.12 919.738V887.119Z" fill="#14B8A6" fill-opacity="0.025"/>
<path d="M1183.8 887.119C1183.8 878.112 1190.72 870.81 1199.26 870.81H1230.18C1238.72 870.81 1245.64 878.112 1245.64 887.119V919.738C1245.64 928.746 1238.72 936.048 1230.18 936.048H1199.26C1190.72 936.048 1183.8 928.746 1183.8 919.738V887.119Z" fill="#14B8A6" fill-opacity="0.025"/>
<path d="M1307.48 887.119C1307.48 878.112 1314.4 870.81 1322.94 870.81H1353.86C1362.4 870.81 1369.32 878.112 1369.32 887.119V919.738C1369.32 928.746 1362.4 936.048 1353.86 936.048H1322.94C1314.4 936.048 1307.48 928.746 1307.48 919.738V887.119Z" fill="#14B8A6" fill-opacity="0.025"/>
<path d="M1431.16 887.119C1431.16 878.112 1438.08 870.81 1446.62 870.81H1477.54C1486.08 870.81 1493 878.112 1493 887.119V919.738C1493 928.746 1486.08 936.048 1477.54 936.048H1446.62C1438.08 936.048 1431.16 928.746 1431.16 919.738V887.119Z" fill="#14B8A6" fill-opacity="0.025"/>
<path d="M-53 1017.6C-53 1008.59 -46.0783 1001.29 -37.54 1001.29H-6.62C1.91832 1001.29 8.84 1008.59 8.84 1017.6V1050.21C8.84 1059.22 1.91832 1066.52 -6.62 1066.52H-37.54C-46.0783 1066.52 -53 1059.22 -53 1050.21V1017.6Z" fill="#14B8A6" fill-opacity="0.025"/>
<path d="M70.68 1017.6C70.68 1008.59 77.6017 1001.29 86.14 1001.29H117.06C125.598 1001.29 132.52 1008.59 132.52 1017.6V1050.21C132.52 1059.22 125.598 1066.52 117.06 1066.52H86.14C77.6017 1066.52 70.68 1059.22 70.68 1050.21V1017.6Z" fill="#14B8A6" fill-opacity="0.025"/>
<path d="M194.36 1017.6C194.36 1008.59 201.282 1001.29 209.82 1001.29H240.74C249.278 1001.29 256.2 1008.59 256.2 1017.6V1050.21C256.2 1059.22 249.278 1066.52 240.74 1066.52H209.82C201.282 1066.52 194.36 1059.22 194.36 1050.21V1017.6Z" fill="#14B8A6" fill-opacity="0.025"/>
<path d="M318.04 1017.6C318.04 1008.59 324.962 1001.29 333.5 1001.29H364.42C372.958 1001.29 379.88 1008.59 379.88 1017.6V1050.21C379.88 1059.22 372.958 1066.52 364.42 1066.52H333.5C324.962 1066.52 318.04 1059.22 318.04 1050.21V1017.6Z" fill="#14B8A6" fill-opacity="0.025"/>
<path d="M441.72 1017.6C441.72 1008.59 448.642 1001.29 457.18 1001.29H488.1C496.638 1001.29 503.56 1008.59 503.56 1017.6V1050.21C503.56 1059.22 496.638 1066.52 488.1 1066.52H457.18C448.642 1066.52 441.72 1059.22 441.72 1050.21V1017.6Z" fill="#14B8A6" fill-opacity="0.025"/>
<path d="M565.4 1017.6C565.4 1008.59 572.322 1001.29 580.86 1001.29H611.78C620.318 1001.29 627.24 1008.59 627.24 1017.6V1050.21C627.24 1059.22 620.318 1066.52 611.78 1066.52H580.86C572.322 1066.52 565.4 1059.22 565.4 1050.21V1017.6Z" fill="#14B8A6" fill-opacity="0.025"/>
<path d="M689.08 1017.6C689.08 1008.59 696.002 1001.29 704.54 1001.29H735.46C743.998 1001.29 750.92 1008.59 750.92 1017.6V1050.21C750.92 1059.22 743.998 1066.52 735.46 1066.52H704.54C696.002 1066.52 689.08 1059.22 689.08 1050.21V1017.6Z" fill="#14B8A6" fill-opacity="0.025"/>
<path d="M812.76 1017.6C812.76 1008.59 819.682 1001.29 828.22 1001.29H859.14C867.678 1001.29 874.6 1008.59 874.6 1017.6V1050.21C874.6 1059.22 867.678 1066.52 859.14 1066.52H828.22C819.682 1066.52 812.76 1059.22 812.76 1050.21V1017.6Z" fill="#14B8A6" fill-opacity="0.025"/>
<path d="M936.44 1017.6C936.44 1008.59 943.362 1001.29 951.9 1001.29H982.82C991.358 1001.29 998.28 1008.59 998.28 1017.6V1050.21C998.28 1059.22 991.358 1066.52 982.82 1066.52H951.9C943.362 1066.52 936.44 1059.22 936.44 1050.21V1017.6Z" fill="#14B8A6" fill-opacity="0.025"/>
<path d="M1060.12 1017.6C1060.12 1008.59 1067.04 1001.29 1075.58 1001.29H1106.5C1115.04 1001.29 1121.96 1008.59 1121.96 1017.6V1050.21C1121.96 1059.22 1115.04 1066.52 1106.5 1066.52H1075.58C1067.04 1066.52 1060.12 1059.22 1060.12 1050.21V1017.6Z" fill="#14B8A6" fill-opacity="0.025"/>
<path d="M1183.8 1017.6C1183.8 1008.59 1190.72 1001.29 1199.26 1001.29H1230.18C1238.72 1001.29 1245.64 1008.59 1245.64 1017.6V1050.21C1245.64 1059.22 1238.72 1066.52 1230.18 1066.52H1199.26C1190.72 1066.52 1183.8 1059.22 1183.8 1050.21V1017.6Z" fill="#14B8A6" fill-opacity="0.025"/>
<path d="M1307.48 1017.6C1307.48 1008.59 1314.4 1001.29 1322.94 1001.29H1353.86C1362.4 1001.29 1369.32 1008.59 1369.32 1017.6V1050.21C1369.32 1059.22 1362.4 1066.52 1353.86 1066.52H1322.94C1314.4 1066.52 1307.48 1059.22 1307.48 1050.21V1017.6Z" fill="#14B8A6" fill-opacity="0.025"/>
<path d="M1431.16 1017.6C1431.16 1008.59 1438.08 1001.29 1446.62 1001.29H1477.54C1486.08 1001.29 1493 1008.59 1493 1017.6V1050.21C1493 1059.22 1486.08 1066.52 1477.54 1066.52H1446.62C1438.08 1066.52 1431.16 1059.22 1431.16 1050.21V1017.6Z" fill="#14B8A6" fill-opacity="0.025"/>
<path d="M-53 1148.07C-53 1139.06 -46.0783 1131.76 -37.54 1131.76H-6.62C1.91832 1131.76 8.84 1139.06 8.84 1148.07V1180.69C8.84 1189.7 1.91832 1197 -6.62 1197H-37.54C-46.0783 1197 -53 1189.7 -53 1180.69V1148.07Z" fill="#14B8A6" fill-opacity="0.025"/>
<path d="M70.68 1148.07C70.68 1139.06 77.6017 1131.76 86.14 1131.76H117.06C125.598 1131.76 132.52 1139.06 132.52 1148.07V1180.69C132.52 1189.7 125.598 1197 117.06 1197H86.14C77.6017 1197 70.68 1189.7 70.68 1180.69V1148.07Z" fill="#14B8A6" fill-opacity="0.025"/>
<path d="M194.36 1148.07C194.36 1139.06 201.282 1131.76 209.82 1131.76H240.74C249.278 1131.76 256.2 1139.06 256.2 1148.07V1180.69C256.2 1189.7 249.278 1197 240.74 1197H209.82C201.282 1197 194.36 1189.7 194.36 1180.69V1148.07Z" fill="#14B8A6" fill-opacity="0.025"/>
<path d="M318.04 1148.07C318.04 1139.06 324.962 1131.76 333.5 1131.76H364.42C372.958 1131.76 379.88 1139.06 379.88 1148.07V1180.69C379.88 1189.7 372.958 1197 364.42 1197H333.5C324.962 1197 318.04 1189.7 318.04 1180.69V1148.07Z" fill="#14B8A6" fill-opacity="0.025"/>
<path d="M441.72 1148.07C441.72 1139.06 448.642 1131.76 457.18 1131.76H488.1C496.638 1131.76 503.56 1139.06 503.56 1148.07V1180.69C503.56 1189.7 496.638 1197 488.1 1197H457.18C448.642 1197 441.72 1189.7 441.72 1180.69V1148.07Z" fill="#14B8A6" fill-opacity="0.025"/>
<path d="M565.4 1148.07C565.4 1139.06 572.322 1131.76 580.86 1131.76H611.78C620.318 1131.76 627.24 1139.06 627.24 1148.07V1180.69C627.24 1189.7 620.318 1197 611.78 1197H580.86C572.322 1197 565.4 1189.7 565.4 1180.69V1148.07Z" fill="#14B8A6" fill-opacity="0.025"/>
<path d="M689.08 1148.07C689.08 1139.06 696.002 1131.76 704.54 1131.76H735.46C743.998 1131.76 750.92 1139.06 750.92 1148.07V1180.69C750.92 1189.7 743.998 1197 735.46 1197H704.54C696.002 1197 689.08 1189.7 689.08 1180.69V1148.07Z" fill="#14B8A6" fill-opacity="0.025"/>
<path d="M812.76 1148.07C812.76 1139.06 819.682 1131.76 828.22 1131.76H859.14C867.678 1131.76 874.6 1139.06 874.6 1148.07V1180.69C874.6 1189.7 867.678 1197 859.14 1197H828.22C819.682 1197 812.76 1189.7 812.76 1180.69V1148.07Z" fill="#14B8A6" fill-opacity="0.025"/>
<path d="M936.44 1148.07C936.44 1139.06 943.362 1131.76 951.9 1131.76H982.82C991.358 1131.76 998.28 1139.06 998.28 1148.07V1180.69C998.28 1189.7 991.358 1197 982.82 1197H951.9C943.362 1197 936.44 1189.7 936.44 1180.69V1148.07Z" fill="#14B8A6" fill-opacity="0.025"/>
<path d="M1060.12 1148.07C1060.12 1139.06 1067.04 1131.76 1075.58 1131.76H1106.5C1115.04 1131.76 1121.96 1139.06 1121.96 1148.07V1180.69C1121.96 1189.7 1115.04 1197 1106.5 1197H1075.58C1067.04 1197 1060.12 1189.7 1060.12 1180.69V1148.07Z" fill="#14B8A6" fill-opacity="0.025"/>
<path d="M1183.8 1148.07C1183.8 1139.06 1190.72 1131.76 1199.26 1131.76H1230.18C1238.72 1131.76 1245.64 1139.06 1245.64 1148.07V1180.69C1245.64 1189.7 1238.72 1197 1230.18 1197H1199.26C1190.72 1197 1183.8 1189.7 1183.8 1180.69V1148.07Z" fill="#14B8A6" fill-opacity="0.025"/>
<path d="M1307.48 1148.07C1307.48 1139.06 1314.4 1131.76 1322.94 1131.76H1353.86C1362.4 1131.76 1369.32 1139.06 1369.32 1148.07V1180.69C1369.32 1189.7 1362.4 1197 1353.86 1197H1322.94C1314.4 1197 1307.48 1189.7 1307.48 1180.69V1148.07Z" fill="#14B8A6" fill-opacity="0.025"/>
<path d="M1431.16 1148.07C1431.16 1139.06 1438.08 1131.76 1446.62 1131.76H1477.54C1486.08 1131.76 1493 1139.06 1493 1148.07V1180.69C1493 1189.7 1486.08 1197 1477.54 1197H1446.62C1438.08 1197 1431.16 1189.7 1431.16 1180.69V1148.07Z" fill="#14B8A6" fill-opacity="0.025"/>
</svg>
