<svg width="1431" height="281" viewBox="0 0 1431 281" fill="none" xmlns="http://www.w3.org/2000/svg">
<path d="M1440.72 63.5044V175.712C1405.25 197.383 1358.45 209.314 1335.33 200.509C1330.29 198.59 1326.62 196.212 1324 193.465C1370.89 168.757 1404.2 125.542 1342.2 89.4845C1333.89 84.6475 1326.07 79.9817 1318.6 75.5285L1318.6 75.5263L1318.6 75.5252C1248.05 33.4325 1209.33 10.3354 1084.42 41.1414C1291.25 -25.6353 1333.47 -0.440723 1424.22 53.7012C1429.54 56.8738 1435.02 60.1457 1440.72 63.5044Z" fill="#14B8A6" fill-opacity="0.02"/>
<path d="M1292.12 168.056C1280.5 142.503 1259.81 138.894 1226.82 146.359C1227.51 154.33 1225.65 162.745 1223.85 170.858L1223.85 170.86C1220.27 186.949 1216.97 201.856 1234.39 209.779C1258.06 200.12 1280.76 185.128 1292.12 168.056Z" fill="#14B8A6" fill-opacity="0.02"/>
<path d="M1205.85 218.67L1205.83 218.463C1202.05 184.821 1193.4 167.49 1178.24 160.91C1171.93 163.046 1165.34 165.315 1158.46 167.687C1157.91 172.111 1156.92 176.574 1155.95 180.944L1155.95 180.947C1152.43 196.779 1149.19 211.397 1168.1 218.599C1177.33 222.113 1190.89 221.829 1205.85 218.67Z" fill="#14B8A6" fill-opacity="0.02"/>
<path fill-rule="evenodd" clip-rule="evenodd" d="M1042.28 54.3316C1052.09 51.5256 1062.53 48.312 1073.65 44.6503C1077.29 43.4536 1080.88 42.2841 1084.42 41.1414C1064.2 46.1264 1041.73 52.5227 1016.5 60.4784C1011.65 61.7284 1006.67 63.0607 1001.54 64.4772C932.809 78.6504 903.179 67.5194 873.892 56.5176C839.494 43.5955 805.571 30.8517 709.316 59.4967C675.826 69.4631 653.895 78.7159 639.826 87.313C624.003 92.7176 611.832 97.8829 602.542 102.821C532.502 127.182 540.925 146.36 547.621 161.608C549.742 166.438 551.689 170.874 550.915 174.954C450.289 187.034 384.758 197.65 361.566 212.711C353.86 215.095 347.574 217.586 342.76 220.224C333.609 223.012 326.528 225.954 321.605 229.121C336.346 213.524 356.138 199.199 371.7 187.936C403.99 164.565 418.069 154.375 331.03 173.343C228.524 195.682 218.189 187.738 208.679 180.428C201.411 174.842 194.625 169.626 147.544 178.582C116.381 184.51 115.406 189.483 127.45 194.074C116.482 197.34 115.498 200.294 120.329 203.073C97.0002 210.293 125.3 215.895 154.027 221.581C168.76 224.497 183.605 227.436 191.656 230.626C140.534 240.613 86.4998 230.878 49.0614 224.133C11.8565 217.429 -8.95933 213.679 5.75773 235.171C6.54366 236.319 7.31123 237.425 8.06088 238.491C7.63414 240.722 8.89789 244.034 12.1172 248.736C32.8574 279.023 38.923 275.969 39.3632 270.655C83.3719 277.301 119.352 284.973 148.654 293.38H168.127C135.153 283.134 93.4345 273.826 40.929 265.897C40.5402 270.589 36.0113 273.619 21.791 255.917C32.9524 267.885 36.7276 264.818 37.0951 260.382C99.4516 269.799 147.795 281.007 185.025 293.38H272.856C253.986 262.888 300.84 228.976 330.282 207.667C358.356 187.348 370.597 178.488 294.922 194.98C205.799 214.402 196.813 207.495 188.545 201.14C182.591 196.563 177.008 192.272 142.134 198.307C136.308 196.922 131.236 195.517 127.45 194.074C131.258 192.939 136.271 191.767 142.663 190.551C186.028 182.302 192.279 187.107 198.973 192.252C207.732 198.985 217.252 206.302 311.669 185.726C391.84 168.255 378.872 177.641 349.13 199.167C317.075 222.367 265.536 259.67 290.117 292.649C290.3 292.895 290.483 293.138 290.668 293.38H310.739C309.688 292.113 308.652 290.795 307.631 289.426C295.219 272.773 300.684 255.104 313.584 238.433C311.731 245.927 319.364 254.66 337.26 265.27C352.403 274.246 359.06 284.258 359.823 293.38H380.454C381.17 282.848 374.475 270.834 356.523 260.192C327.588 243.039 323.979 230.515 342.76 220.224C346.995 218.934 351.673 217.676 356.786 216.444C346.392 226.519 353.415 238.591 379.726 254.188C401.037 266.821 407.736 281.236 405.282 293.38H517.259C507.349 286.081 490.207 277.923 472.817 269.647C429.716 249.134 385.093 227.897 445.282 217.225C425.84 229.471 463.505 247.397 500.132 264.829C521.312 274.909 542.146 284.824 551.389 293.38H594.244C586.475 283.417 561.291 271.431 535.638 259.223C501.878 243.155 467.305 226.701 470.551 213.962C475.499 213.497 480.837 213.071 486.584 212.686C584.558 206.133 608.771 214.981 630.623 222.966C654.101 231.544 674.854 239.128 781.428 225.547C798.074 223.425 813.567 220.874 828.036 217.986C844.596 215.855 860.077 213.322 874.591 210.468C879.73 209.86 885.061 209.205 890.592 208.5C1011.96 193.033 1080.07 157.703 1132.26 129.544C1151.55 136.551 1157.77 146.689 1158.75 157.736C1144.86 158.14 1127.59 162.668 1106.41 169.503C1086.38 165.235 1056.48 175.538 1013.69 190.279C970.244 205.249 913.512 224.795 840.346 238.306C814.515 240.206 787.344 241.31 758.773 241.415C670.446 241.737 643.822 244.635 653.338 249.122C615.523 250.162 603.13 252.273 607.802 255.131C520.327 258.424 616.028 269.455 720.344 281.478L720.345 281.478C754.529 285.418 789.637 289.465 819.528 293.38H892.33C856.441 288.206 808.605 282.693 762.366 277.363C687.434 268.727 616.697 260.574 607.802 255.131C622.23 254.588 641.641 254.256 666.819 254.164C669.229 254.155 671.628 254.138 674.015 254.113C704.253 259.451 761.087 266.001 820.337 272.831C880.082 279.717 942.283 286.886 982.152 293.38H1435.15C1437.08 292.673 1438.94 291.989 1440.72 291.328V278.867C1418.79 280.483 1395.56 281.727 1372.56 281.974C1389.91 280.563 1406.13 278.977 1420.29 277.593C1424 277.23 1427.56 276.882 1430.97 276.554C1434.19 276.77 1437.44 276.957 1440.72 277.118V275.637C1437.64 275.917 1434.38 276.225 1430.97 276.554C1363.08 272 1306.95 254.715 1301.79 208.884C1301.59 207.101 1301.38 205.361 1301.15 203.662C1308.89 200.789 1316.62 197.356 1324 193.465C1315.32 184.358 1318.25 171.192 1321.35 157.203C1327.05 131.552 1333.35 103.132 1269.9 91.8841C1260.45 90.2087 1251.56 89.4813 1243.06 89.5694C1181.39 52.7897 1144.89 32.0462 1042.28 54.3316ZM1008.9 62.8958C1011.46 62.0745 1014 61.2688 1016.5 60.4784C1025.55 58.1483 1034.12 56.1039 1042.28 54.3316C1030.25 57.7751 1019.16 60.6048 1008.9 62.8958ZM942.019 82.6193C963.801 75.4707 983.541 69.4536 1001.54 64.4772C1003.95 63.9814 1006.4 63.4546 1008.9 62.8958C1004.58 64.2822 1000.18 65.7129 995.694 67.1885C975.472 73.8434 957.727 78.8913 942.019 82.6193ZM630.003 94.1938C632.744 91.9481 635.993 89.6549 639.826 87.313C646.012 85.2 652.756 83.0504 660.105 80.8634C748.764 54.4787 780.011 66.2169 811.695 78.1193C840.415 88.9083 869.494 99.8323 942.019 82.6193C941.544 82.7753 941.067 82.932 940.59 83.0891C833.372 118.375 799.889 105.797 766.908 93.4069C737.75 82.4532 708.984 71.6469 630.003 94.1938ZM578.776 171.04C585.815 165.025 582.811 158.186 579.38 150.372C573.694 137.425 566.833 121.802 602.542 102.821C608.956 100.59 616.028 98.3158 623.819 95.9971C625.914 95.3736 627.975 94.7727 630.003 94.1938C610.714 110 616.622 123.453 621.675 134.96C628.286 150.015 633.435 161.738 578.776 171.04ZM544.905 182.706C548.65 180.274 550.396 177.694 550.915 174.954L552.616 174.751C562.574 173.558 571.243 172.322 578.776 171.04C573.756 175.33 563.628 179.2 544.905 182.706ZM1292.12 168.056C1305.56 147.862 1303.13 124.758 1267.67 104.135C1259.82 99.5679 1252.43 95.1628 1245.39 90.9584L1243.06 89.5694C1216.88 89.8404 1194.31 97.8381 1170.01 109.698C1141.69 105.969 1118.73 111.691 1094.79 122.277C1058.84 120.531 1031.37 135.375 995.636 154.689C960.444 173.707 917.234 197.057 850.018 213.166C762.155 221.979 740.857 214.197 717.142 205.531C692.008 196.347 664.159 186.171 551.473 193.709C506.237 196.734 483.051 202 474.411 208.71C459.836 211.059 450.501 213.938 445.282 217.225C452.247 215.99 460.615 214.897 470.551 213.962C471.017 212.131 472.266 210.376 474.411 208.71C484.959 207.009 498.253 205.586 514.717 204.485C618.511 197.542 644.163 206.915 667.314 215.375C692.186 224.463 714.172 232.497 827.077 218.109C827.397 218.068 827.716 218.027 828.036 217.986C835.64 216.468 842.961 214.857 850.018 213.166C857.687 212.396 865.862 211.501 874.591 210.468C960.492 193.579 1012.51 165.467 1054.01 143.041C1068.56 135.178 1081.82 128.013 1094.79 122.277C1100.07 122.533 1105.52 123.147 1111.22 124.156C1119.54 125.632 1126.49 127.448 1132.26 129.544C1133.84 128.69 1135.41 127.842 1136.97 127.001C1148.6 120.717 1159.46 114.844 1170.01 109.698C1172.13 109.977 1174.27 110.308 1176.46 110.695C1214.83 117.497 1225.5 131.118 1226.82 146.359C1212.9 149.509 1196.79 154.632 1178.24 160.91C1172.66 158.484 1166.19 157.519 1158.75 157.736C1159.04 160.993 1158.88 164.329 1158.46 167.687L1157.72 167.94C1147.1 171.602 1135.78 175.502 1123.73 179.523C1119.05 174.176 1113.32 170.974 1106.41 169.503C1096.24 172.786 1085.17 176.6 1073.14 180.746C1021.2 198.64 951.353 222.706 858.793 236.797C852.721 237.344 846.573 237.848 840.346 238.306C833.095 239.645 825.682 240.925 818.104 242.135C783.537 245.953 746.123 248.278 705.659 248.426C684.519 248.503 667.216 248.741 653.338 249.122C656.516 250.621 663.726 252.297 674.015 254.113C727.618 253.552 775.466 248.946 818.104 242.135C832.131 240.586 845.69 238.791 858.793 236.797C972.06 226.583 1058.53 201.286 1123.73 179.523C1131.51 188.412 1136.39 203.229 1138.94 225.881C1146.4 292.225 1276.72 289.767 1372.56 281.974C1290.77 282.854 1211.96 271.127 1205.85 218.67C1215.07 216.724 1224.81 213.689 1234.39 209.779C1235.13 210.115 1235.91 210.438 1236.72 210.749C1251.38 216.329 1276.35 212.867 1301.15 203.662C1299.17 188.76 1296.21 177.049 1292.12 168.056ZM544.905 182.706C537.029 187.822 520.313 192.284 487.578 196.204C430.564 203.031 386.392 209.309 356.786 216.444C358.101 215.168 359.696 213.925 361.566 212.711C391.921 203.319 444.328 195.577 515.77 187.023C527.249 185.648 536.869 184.211 544.905 182.706ZM207.906 226.716C203.496 222.042 182.848 217.954 162.405 213.908C144.611 210.386 126.972 206.894 120.329 203.073C124.003 201.936 128.957 200.758 135.392 199.534C137.754 199.085 139.999 198.677 142.134 198.307C150.124 200.207 159.53 202.069 168.977 203.939C203.156 210.704 237.861 217.574 207.906 226.716ZM197.756 235.04C197.461 233.506 195.227 232.041 191.656 230.626C192.664 230.43 193.67 230.225 194.675 230.013C200.035 228.881 204.411 227.783 207.906 226.716C210.328 229.283 207.853 232.028 197.756 235.04ZM8.74814 236.943C2.92487 223.675 21.4643 227.015 51.951 232.508C87.1147 238.843 138.173 248.042 186.074 237.924C190.756 236.935 194.623 235.975 197.756 235.04C198.295 237.838 192.385 240.868 176.37 244.251C131.154 253.802 82.959 245.118 49.7671 239.138C27.7085 235.164 12.2757 232.383 8.74814 236.943ZM8.74814 236.943C8.4043 237.387 8.17362 237.901 8.06088 238.491C13.5517 246.297 18.0797 251.938 21.791 255.917C18.9503 252.381 15.7228 248.018 12.0643 242.675C10.5681 240.49 9.47062 238.589 8.74814 236.943ZM321.605 229.121C317.103 232.018 314.407 235.103 313.584 238.433C316.016 235.289 318.713 232.181 321.605 229.121Z" fill="#14B8A6" fill-opacity="0.02"/>
<path d="M1324 193.465C1326.62 196.212 1330.29 198.59 1335.33 200.509C1358.45 209.314 1405.25 197.383 1440.72 175.712V63.5044C1435.02 60.1457 1429.54 56.8738 1424.22 53.7012C1333.47 -0.440723 1291.25 -25.6353 1084.42 41.1414M1324 193.465C1370.89 168.757 1404.2 125.542 1342.2 89.4845C1333.89 84.6475 1326.07 79.9817 1318.6 75.5285L1318.6 75.5263L1318.6 75.5252C1248.05 33.4325 1209.33 10.3354 1084.42 41.1414M1324 193.465C1316.62 197.356 1308.89 200.789 1301.15 203.662M1324 193.465C1315.32 184.358 1318.25 171.192 1321.35 157.203C1327.05 131.552 1333.35 103.132 1269.9 91.8841C1260.45 90.2087 1251.56 89.4813 1243.06 89.5694M1084.42 41.1414C1080.88 42.2841 1077.29 43.4536 1073.65 44.6503C1062.53 48.312 1052.09 51.5256 1042.28 54.3316M1084.42 41.1414C1064.2 46.1264 1041.73 52.5227 1016.5 60.4784M1042.28 54.3316C1144.89 32.0462 1181.39 52.7897 1243.06 89.5694M1042.28 54.3316C1034.12 56.1039 1025.55 58.1483 1016.5 60.4784M1042.28 54.3316C1030.25 57.7751 1019.16 60.6048 1008.9 62.8958M1016.5 60.4784C1011.65 61.7284 1006.67 63.0607 1001.54 64.4772M1016.5 60.4784C1014 61.2688 1011.46 62.0745 1008.9 62.8958M1001.54 64.4772C932.809 78.6504 903.179 67.5194 873.892 56.5176C839.494 43.5955 805.571 30.8517 709.316 59.4967C675.826 69.4631 653.895 78.7159 639.826 87.313M1001.54 64.4772C983.541 69.4536 963.801 75.4707 942.019 82.6193M1001.54 64.4772C1003.95 63.9814 1006.4 63.4546 1008.9 62.8958M639.826 87.313C624.003 92.7176 611.832 97.8829 602.542 102.821M639.826 87.313C635.993 89.6549 632.744 91.9481 630.003 94.1938M639.826 87.313C646.012 85.2 652.756 83.0504 660.105 80.8634C748.764 54.4787 780.011 66.2169 811.695 78.1193C840.415 88.9083 869.494 99.8323 942.019 82.6193M602.542 102.821C532.502 127.182 540.925 146.36 547.621 161.608C549.742 166.438 551.689 170.874 550.915 174.954M602.542 102.821C566.833 121.802 573.694 137.425 579.38 150.372C582.811 158.186 585.815 165.025 578.776 171.04M602.542 102.821C608.956 100.59 616.028 98.3158 623.819 95.9971C625.914 95.3736 627.975 94.7727 630.003 94.1938M550.915 174.954C450.289 187.034 384.758 197.65 361.566 212.711M550.915 174.954C550.396 177.694 548.65 180.274 544.905 182.706M550.915 174.954L552.616 174.751C562.574 173.558 571.243 172.322 578.776 171.04M361.566 212.711C353.86 215.095 347.574 217.586 342.76 220.224M361.566 212.711C359.696 213.925 358.101 215.168 356.786 216.444M361.566 212.711C391.921 203.319 444.328 195.577 515.77 187.023C527.249 185.648 536.869 184.211 544.905 182.706M342.76 220.224C333.609 223.012 326.528 225.954 321.605 229.121M342.76 220.224C323.979 230.515 327.588 243.039 356.523 260.192C374.475 270.834 381.17 282.848 380.454 293.38H359.823C359.06 284.258 352.403 274.246 337.26 265.27C319.364 254.66 311.731 245.927 313.584 238.433M342.76 220.224C346.995 218.934 351.673 217.676 356.786 216.444M321.605 229.121C336.346 213.524 356.138 199.199 371.7 187.936C403.99 164.565 418.069 154.375 331.03 173.343C228.524 195.682 218.189 187.738 208.679 180.428C201.411 174.842 194.625 169.626 147.544 178.582C116.381 184.51 115.406 189.483 127.45 194.074M321.605 229.121C317.103 232.018 314.407 235.103 313.584 238.433M321.605 229.121C318.713 232.181 316.016 235.289 313.584 238.433M127.45 194.074C116.482 197.34 115.498 200.294 120.329 203.073M127.45 194.074C131.236 195.517 136.308 196.922 142.134 198.307M127.45 194.074C131.258 192.939 136.271 191.767 142.663 190.551C186.028 182.302 192.279 187.107 198.973 192.252C207.732 198.985 217.252 206.302 311.669 185.726C391.84 168.255 378.872 177.641 349.13 199.167C317.075 222.367 265.536 259.67 290.117 292.649C290.3 292.895 290.483 293.138 290.668 293.38H310.739C309.688 292.113 308.652 290.795 307.631 289.426C295.219 272.773 300.684 255.104 313.584 238.433M120.329 203.073C97.0002 210.293 125.3 215.895 154.027 221.581C168.76 224.497 183.605 227.436 191.656 230.626M120.329 203.073C126.972 206.894 144.611 210.386 162.405 213.908C182.848 217.954 203.496 222.042 207.906 226.716M120.329 203.073C124.003 201.936 128.957 200.758 135.392 199.534C137.754 199.085 139.999 198.677 142.134 198.307M191.656 230.626C140.534 240.613 86.4998 230.878 49.0614 224.133C11.8565 217.429 -8.95933 213.679 5.75773 235.171C6.54366 236.319 7.31123 237.425 8.06088 238.491M191.656 230.626C195.227 232.041 197.461 233.506 197.756 235.04M191.656 230.626C192.664 230.43 193.67 230.225 194.675 230.013C200.035 228.881 204.411 227.783 207.906 226.716M8.06088 238.491C7.63414 240.722 8.89789 244.034 12.1172 248.736C32.8574 279.023 38.923 275.969 39.3632 270.655C83.3719 277.301 119.352 284.973 148.654 293.38H168.127C135.153 283.134 93.4345 273.826 40.929 265.897C40.5402 270.589 36.0113 273.619 21.791 255.917M8.06088 238.491C8.17362 237.901 8.4043 237.387 8.74814 236.943M8.06088 238.491C13.5517 246.297 18.0797 251.938 21.791 255.917M21.791 255.917C32.9524 267.885 36.7276 264.818 37.0951 260.382C99.4516 269.799 147.795 281.007 185.025 293.38H272.856C253.986 262.888 300.84 228.976 330.282 207.667C358.356 187.348 370.597 178.488 294.922 194.98C205.799 214.402 196.813 207.495 188.545 201.14C182.591 196.563 177.008 192.272 142.134 198.307M21.791 255.917C18.9503 252.381 15.7228 248.018 12.0643 242.675C10.5681 240.49 9.47062 238.589 8.74814 236.943M142.134 198.307C150.124 200.207 159.53 202.069 168.977 203.939C203.156 210.704 237.861 217.574 207.906 226.716M356.786 216.444C346.392 226.519 353.415 238.591 379.726 254.188C401.037 266.821 407.736 281.236 405.282 293.38H517.259C507.349 286.081 490.207 277.923 472.817 269.647C429.716 249.134 385.093 227.897 445.282 217.225M356.786 216.444C386.392 209.309 430.564 203.031 487.578 196.204C520.313 192.284 537.029 187.822 544.905 182.706M445.282 217.225C425.84 229.471 463.505 247.397 500.132 264.829C521.312 274.909 542.146 284.824 551.389 293.38H594.244C586.475 283.417 561.291 271.431 535.638 259.223C501.878 243.155 467.305 226.701 470.551 213.962M445.282 217.225C450.501 213.938 459.836 211.059 474.411 208.71M445.282 217.225C452.247 215.99 460.615 214.897 470.551 213.962M470.551 213.962C475.499 213.497 480.837 213.071 486.584 212.686C584.558 206.133 608.771 214.981 630.623 222.966C654.101 231.544 674.854 239.128 781.428 225.547C798.074 223.425 813.567 220.874 828.036 217.986M470.551 213.962C471.017 212.131 472.266 210.376 474.411 208.71M828.036 217.986C844.596 215.855 860.077 213.322 874.591 210.468M828.036 217.986C827.716 218.027 827.397 218.068 827.077 218.109C714.172 232.497 692.186 224.463 667.314 215.375C644.163 206.915 618.511 197.542 514.717 204.485C498.253 205.586 484.959 207.009 474.411 208.71M828.036 217.986C835.64 216.468 842.961 214.857 850.018 213.166M874.591 210.468C879.73 209.86 885.061 209.205 890.592 208.5C1011.96 193.033 1080.07 157.703 1132.26 129.544M874.591 210.468C865.862 211.501 857.687 212.396 850.018 213.166M874.591 210.468C960.492 193.579 1012.51 165.467 1054.01 143.041C1068.56 135.178 1081.82 128.013 1094.79 122.277M1132.26 129.544C1151.55 136.551 1157.77 146.689 1158.75 157.736M1132.26 129.544C1126.49 127.448 1119.54 125.632 1111.22 124.156C1105.52 123.147 1100.07 122.533 1094.79 122.277M1132.26 129.544C1133.84 128.69 1135.41 127.842 1136.97 127.001C1148.6 120.717 1159.46 114.844 1170.01 109.698M1158.75 157.736C1144.86 158.14 1127.59 162.668 1106.41 169.503M1158.75 157.736C1166.19 157.519 1172.66 158.484 1178.24 160.91M1158.75 157.736C1159.04 160.993 1158.88 164.329 1158.46 167.687M1106.41 169.503C1086.38 165.235 1056.48 175.538 1013.69 190.279C970.244 205.249 913.512 224.795 840.346 238.306M1106.41 169.503C1113.32 170.974 1119.05 174.176 1123.73 179.523M1106.41 169.503C1096.24 172.786 1085.17 176.6 1073.14 180.746C1021.2 198.64 951.353 222.706 858.793 236.797M840.346 238.306C814.515 240.206 787.344 241.31 758.773 241.415C670.446 241.737 643.822 244.635 653.338 249.122M840.346 238.306C846.573 237.848 852.721 237.344 858.793 236.797M840.346 238.306C833.095 239.645 825.682 240.925 818.104 242.135M653.338 249.122C615.523 250.162 603.13 252.273 607.802 255.131M653.338 249.122C667.216 248.741 684.519 248.503 705.659 248.426C746.123 248.278 783.537 245.953 818.104 242.135M653.338 249.122C656.516 250.621 663.726 252.297 674.015 254.113M607.802 255.131C520.327 258.424 616.028 269.455 720.344 281.478L720.345 281.478C754.529 285.418 789.637 289.465 819.528 293.38H892.33C856.441 288.206 808.605 282.693 762.366 277.363C687.434 268.727 616.697 260.574 607.802 255.131ZM607.802 255.131C622.23 254.588 641.641 254.256 666.819 254.164C669.229 254.155 671.628 254.138 674.015 254.113M674.015 254.113C704.253 259.451 761.087 266.001 820.337 272.831C880.082 279.717 942.283 286.886 982.152 293.38H1435.15C1437.08 292.673 1438.94 291.989 1440.72 291.328V278.867C1418.79 280.483 1395.56 281.727 1372.56 281.974M674.015 254.113C727.618 253.552 775.466 248.946 818.104 242.135M1372.56 281.974C1389.91 280.563 1406.13 278.977 1420.29 277.593C1424 277.23 1427.56 276.882 1430.97 276.554M1372.56 281.974C1276.72 289.767 1146.4 292.225 1138.94 225.881C1136.39 203.229 1131.51 188.412 1123.73 179.523M1372.56 281.974C1290.77 282.854 1211.96 271.127 1205.85 218.67M1430.97 276.554C1434.19 276.77 1437.44 276.957 1440.72 277.118V275.637C1437.64 275.917 1434.38 276.225 1430.97 276.554ZM1430.97 276.554C1363.08 272 1306.95 254.715 1301.79 208.884C1301.59 207.101 1301.38 205.361 1301.15 203.662M1301.15 203.662C1276.35 212.867 1251.38 216.329 1236.72 210.749C1235.91 210.438 1235.13 210.115 1234.39 209.779M1301.15 203.662C1299.17 188.76 1296.21 177.049 1292.12 168.056M1243.06 89.5694L1245.39 90.9584C1252.43 95.1628 1259.82 99.5679 1267.67 104.135C1303.13 124.758 1305.56 147.862 1292.12 168.056M1243.06 89.5694C1216.88 89.8404 1194.31 97.8381 1170.01 109.698M1008.9 62.8958C1004.58 64.2822 1000.18 65.7129 995.694 67.1885C975.472 73.8434 957.727 78.8913 942.019 82.6193M942.019 82.6193C941.544 82.7753 941.067 82.932 940.59 83.0891C833.372 118.375 799.889 105.797 766.908 93.4069C737.75 82.4532 708.984 71.6469 630.003 94.1938M630.003 94.1938C610.714 110 616.622 123.453 621.675 134.96C628.286 150.015 633.435 161.738 578.776 171.04M578.776 171.04C573.756 175.33 563.628 179.2 544.905 182.706M1292.12 168.056C1280.5 142.503 1259.81 138.894 1226.82 146.359M1292.12 168.056C1280.76 185.128 1258.06 200.12 1234.39 209.779M1170.01 109.698C1141.69 105.969 1118.73 111.691 1094.79 122.277M1170.01 109.698C1172.13 109.977 1174.27 110.308 1176.46 110.695C1214.83 117.497 1225.5 131.118 1226.82 146.359M1094.79 122.277C1058.84 120.531 1031.37 135.375 995.636 154.689C960.444 173.707 917.234 197.057 850.018 213.166M850.018 213.166C762.155 221.979 740.857 214.197 717.142 205.531C692.008 196.347 664.159 186.171 551.473 193.709C506.237 196.734 483.051 202 474.411 208.71M1226.82 146.359C1212.9 149.509 1196.79 154.632 1178.24 160.91M1226.82 146.359C1227.51 154.33 1225.65 162.745 1223.85 170.858L1223.85 170.86C1220.27 186.949 1216.97 201.856 1234.39 209.779M1178.24 160.91C1193.4 167.49 1202.05 184.821 1205.83 218.463L1205.85 218.67M1178.24 160.91C1171.93 163.046 1165.34 165.315 1158.46 167.687M1158.46 167.687C1157.91 172.111 1156.92 176.574 1155.95 180.944L1155.95 180.947C1152.43 196.779 1149.19 211.397 1168.1 218.599C1177.33 222.113 1190.89 221.829 1205.85 218.67M1158.46 167.687L1157.72 167.94C1147.1 171.602 1135.78 175.502 1123.73 179.523M1123.73 179.523C1058.53 201.286 972.06 226.583 858.793 236.797M858.793 236.797C845.69 238.791 832.131 240.586 818.104 242.135M1205.85 218.67C1215.07 216.724 1224.81 213.689 1234.39 209.779M207.906 226.716C210.328 229.283 207.853 232.028 197.756 235.04M197.756 235.04C194.623 235.975 190.756 236.935 186.074 237.924C138.173 248.042 87.1147 238.843 51.951 232.508C21.4643 227.015 2.92487 223.675 8.74814 236.943M197.756 235.04C198.295 237.838 192.385 240.868 176.37 244.251C131.154 253.802 82.959 245.118 49.7671 239.138C27.7085 235.164 12.2757 232.383 8.74814 236.943" stroke="#14B8A6" stroke-opacity="0.8" stroke-width="2"/>
</svg>
