<svg width="1431" height="293" viewBox="0 0 1431 293" fill="none" xmlns="http://www.w3.org/2000/svg">
<path fill-rule="evenodd" clip-rule="evenodd" d="M1430.72 57.5739V181.411C1396.88 199.394 1356.34 208.508 1335.33 200.509C1330.29 198.59 1326.62 196.212 1324 193.465C1370.89 168.757 1404.2 125.542 1342.2 89.4845C1333.89 84.6475 1326.07 79.9817 1318.6 75.5285L1318.6 75.5263L1318.6 75.5252C1248.05 33.4325 1209.33 10.3354 1084.42 41.1414C1291.25 -25.6353 1333.47 -0.440725 1424.22 53.7012C1426.36 54.9764 1428.52 56.2675 1430.72 57.5739ZM1042.28 54.3316C1052.09 51.5256 1062.53 48.312 1073.65 44.6503C1077.29 43.4536 1080.88 42.2841 1084.42 41.1414C1064.2 46.1264 1041.73 52.5227 1016.5 60.4784C1011.65 61.7284 1006.67 63.0607 1001.54 64.4772C932.809 78.6504 903.179 67.5194 873.892 56.5176C839.494 43.5955 805.571 30.8517 709.316 59.4967C675.826 69.4631 653.895 78.7159 639.826 87.313C624.003 92.7176 611.832 97.8829 602.542 102.821C532.502 127.182 540.925 146.36 547.621 161.608C549.742 166.438 551.689 170.874 550.915 174.954C450.289 187.034 384.758 197.65 361.566 212.711C353.86 215.095 347.574 217.586 342.76 220.224C333.609 223.012 326.528 225.954 321.605 229.121C336.346 213.524 356.138 199.199 371.7 187.936C403.99 164.565 418.069 154.375 331.03 173.343C228.524 195.682 218.189 187.738 208.679 180.428C201.411 174.842 194.625 169.626 147.544 178.582C116.381 184.51 115.406 189.483 127.45 194.074C116.482 197.34 115.498 200.294 120.329 203.073C97.0002 210.293 125.3 215.895 154.027 221.581L154.027 221.581C168.76 224.497 183.605 227.436 191.656 230.626C140.534 240.613 86.4998 230.878 49.0614 224.133C11.8565 217.429 -8.95933 213.679 5.75773 235.171C6.54366 236.319 7.31123 237.425 8.06088 238.491C7.63414 240.722 8.89789 244.034 12.1172 248.736C32.8574 279.023 38.923 275.969 39.3632 270.655C83.3719 277.301 119.352 284.973 148.654 293.38H168.127C135.153 283.134 93.4345 273.826 40.929 265.897C40.5402 270.589 36.0113 273.619 21.791 255.917C32.9524 267.885 36.7276 264.818 37.0951 260.382C99.4516 269.799 147.795 281.007 185.025 293.38H272.856C253.986 262.888 300.84 228.976 330.282 207.667C358.356 187.348 370.597 178.488 294.922 194.98C205.799 214.402 196.813 207.495 188.545 201.14C182.591 196.563 177.008 192.272 142.134 198.307C136.308 196.922 131.236 195.517 127.45 194.074C131.258 192.939 136.271 191.767 142.663 190.551C186.028 182.302 192.279 187.107 198.973 192.252C207.732 198.985 217.252 206.302 311.669 185.726C391.84 168.255 378.872 177.641 349.13 199.167C317.075 222.367 265.536 259.67 290.117 292.649C290.3 292.895 290.483 293.138 290.668 293.38H310.739C309.688 292.113 308.652 290.795 307.631 289.426C295.219 272.773 300.684 255.104 313.584 238.433C311.731 245.927 319.364 254.66 337.26 265.27C352.403 274.246 359.06 284.258 359.823 293.38H380.454C381.17 282.848 374.475 270.834 356.523 260.192C327.588 243.039 323.979 230.515 342.76 220.224C346.995 218.934 351.673 217.676 356.786 216.444C346.392 226.519 353.415 238.591 379.726 254.188C401.037 266.821 407.736 281.236 405.282 293.38H517.259C507.349 286.081 490.207 277.923 472.817 269.647C429.716 249.134 385.093 227.897 445.282 217.225C425.84 229.471 463.505 247.397 500.132 264.829C521.312 274.909 542.146 284.824 551.389 293.38H594.244C586.475 283.417 561.291 271.431 535.638 259.223C501.878 243.155 467.305 226.701 470.551 213.962C475.499 213.497 480.837 213.071 486.584 212.686C584.558 206.133 608.771 214.981 630.623 222.966C654.101 231.544 674.854 239.128 781.428 225.547C798.074 223.425 813.567 220.875 828.036 217.986C844.596 215.855 860.077 213.322 874.591 210.468C879.73 209.86 885.061 209.205 890.592 208.5C1011.96 193.033 1080.07 157.703 1132.26 129.544C1151.55 136.551 1157.77 146.689 1158.75 157.736C1144.86 158.14 1127.59 162.668 1106.41 169.503C1086.38 165.235 1056.48 175.538 1013.69 190.279C970.244 205.249 913.512 224.795 840.346 238.306C814.515 240.206 787.344 241.31 758.773 241.415C670.446 241.737 643.822 244.635 653.338 249.122C615.523 250.162 603.13 252.273 607.802 255.131C520.327 258.424 616.028 269.455 720.344 281.478L720.345 281.478C754.529 285.418 789.637 289.465 819.528 293.38H892.33C856.441 288.206 808.605 282.693 762.366 277.363C687.434 268.727 616.697 260.574 607.802 255.131C622.23 254.588 641.641 254.256 666.819 254.164C669.229 254.155 671.628 254.138 674.015 254.113C704.253 259.451 761.087 266.001 820.337 272.83C880.082 279.717 942.283 286.886 982.152 293.38H1430.72V279.57C1411.79 280.835 1392.09 281.764 1372.56 281.974C1389.91 280.563 1406.13 278.977 1420.29 277.593C1423.9 277.239 1427.39 276.899 1430.72 276.578V276.537C1362.94 271.957 1306.94 254.658 1301.79 208.884C1301.59 207.101 1301.38 205.361 1301.15 203.662C1308.89 200.789 1316.62 197.356 1324 193.465C1315.32 184.358 1318.25 171.192 1321.35 157.203C1327.05 131.552 1333.35 103.132 1269.9 91.8841C1260.45 90.2087 1251.56 89.4813 1243.06 89.5694C1181.39 52.7897 1144.89 32.0462 1042.28 54.3316ZM1008.9 62.8958C1011.46 62.0745 1014 61.2688 1016.5 60.4784C1025.55 58.1483 1034.12 56.1039 1042.28 54.3316C1030.25 57.7751 1019.16 60.6048 1008.9 62.8958ZM942.019 82.6193C963.801 75.4707 983.541 69.4536 1001.54 64.4772C1003.95 63.9814 1006.4 63.4546 1008.9 62.8958C1004.58 64.2822 1000.18 65.7129 995.694 67.1885C975.472 73.8434 957.727 78.8913 942.019 82.6193ZM630.003 94.1938C632.744 91.9481 635.993 89.6549 639.826 87.313C646.012 85.2 652.756 83.0504 660.105 80.8634C748.764 54.4787 780.011 66.2169 811.695 78.1193C840.415 88.9083 869.494 99.8323 942.019 82.6193C941.544 82.7753 941.067 82.932 940.59 83.0891C833.372 118.375 799.889 105.797 766.908 93.4069C737.75 82.4532 708.984 71.6468 630.003 94.1938ZM578.776 171.04C585.815 165.025 582.811 158.186 579.38 150.372C573.694 137.425 566.833 121.802 602.542 102.821C608.956 100.59 616.028 98.3158 623.819 95.9971C625.914 95.3736 627.975 94.7727 630.003 94.1938C610.714 110 616.622 123.453 621.675 134.96C628.286 150.015 633.435 161.738 578.776 171.04ZM544.905 182.706C548.65 180.274 550.396 177.694 550.915 174.954L552.616 174.751C562.574 173.558 571.243 172.322 578.776 171.04C573.756 175.33 563.628 179.2 544.905 182.706ZM1292.12 168.056C1305.56 147.862 1303.13 124.758 1267.67 104.135C1259.82 99.5679 1252.43 95.1628 1245.39 90.9584L1243.06 89.5694C1216.88 89.8404 1194.31 97.8381 1170.01 109.698C1141.69 105.969 1118.73 111.691 1094.79 122.277C1058.84 120.531 1031.37 135.375 995.636 154.689C960.444 173.707 917.234 197.057 850.018 213.166C762.155 221.979 740.857 214.197 717.142 205.531C692.008 196.347 664.159 186.171 551.473 193.709C506.237 196.734 483.051 202 474.411 208.71C459.836 211.059 450.501 213.938 445.282 217.225C452.247 215.99 460.615 214.897 470.551 213.962C471.017 212.131 472.266 210.376 474.411 208.71C484.959 207.009 498.253 205.586 514.717 204.485C618.511 197.542 644.163 206.915 667.314 215.375C692.186 224.463 714.172 232.497 827.077 218.109C827.397 218.068 827.716 218.027 828.036 217.986C835.64 216.468 842.961 214.857 850.018 213.166C857.687 212.396 865.862 211.501 874.591 210.468C960.492 193.579 1012.51 165.467 1054.01 143.041C1068.56 135.178 1081.82 128.013 1094.79 122.277C1100.07 122.533 1105.52 123.147 1111.22 124.156C1119.54 125.632 1126.49 127.448 1132.26 129.544C1133.84 128.69 1135.41 127.842 1136.97 127.001C1148.6 120.717 1159.47 114.844 1170.01 109.698C1172.13 109.977 1174.27 110.308 1176.46 110.695C1214.83 117.497 1225.5 131.118 1226.82 146.359C1212.9 149.509 1196.79 154.632 1178.24 160.91C1172.66 158.484 1166.19 157.519 1158.75 157.736C1159.04 160.993 1158.88 164.329 1158.46 167.687L1157.73 167.937L1157.72 167.94C1147.1 171.602 1135.78 175.502 1123.73 179.523C1119.05 174.176 1113.32 170.974 1106.41 169.503C1096.24 172.786 1085.17 176.6 1073.14 180.746C1021.2 198.64 951.353 222.706 858.793 236.797C852.721 237.344 846.573 237.848 840.346 238.306C833.095 239.645 825.682 240.925 818.104 242.135C783.537 245.953 746.123 248.278 705.659 248.426C684.519 248.503 667.216 248.741 653.338 249.122C656.516 250.621 663.726 252.297 674.015 254.113C727.618 253.552 775.466 248.946 818.104 242.135C832.131 240.586 845.69 238.791 858.793 236.797C972.06 226.583 1058.53 201.286 1123.73 179.523C1131.51 188.412 1136.39 203.229 1138.94 225.881C1146.4 292.225 1276.72 289.767 1372.56 281.974C1290.77 282.854 1211.96 271.127 1205.85 218.67C1215.07 216.724 1224.81 213.689 1234.39 209.779C1235.13 210.115 1235.91 210.438 1236.72 210.749C1251.38 216.329 1276.35 212.867 1301.15 203.662C1299.17 188.76 1296.21 177.049 1292.12 168.056ZM1292.12 168.056C1280.5 142.503 1259.81 138.894 1226.82 146.359C1227.51 154.33 1225.65 162.745 1223.85 170.858L1223.85 170.86C1220.27 186.949 1216.97 201.856 1234.39 209.779C1258.06 200.12 1280.76 185.128 1292.12 168.056ZM1205.85 218.67L1205.84 218.583L1205.83 218.463C1202.05 184.821 1193.4 167.49 1178.24 160.91C1171.93 163.046 1165.34 165.315 1158.46 167.687C1157.91 172.111 1156.92 176.574 1155.95 180.944L1155.95 180.947C1152.43 196.779 1149.19 211.397 1168.1 218.599C1177.33 222.113 1190.89 221.829 1205.85 218.67ZM544.905 182.706C537.029 187.822 520.313 192.284 487.578 196.204C430.563 203.031 386.392 209.309 356.786 216.444C358.101 215.168 359.696 213.925 361.566 212.711C391.92 203.319 444.328 195.577 515.77 187.023C527.249 185.648 536.869 184.211 544.905 182.706ZM207.906 226.716C203.496 222.042 182.848 217.955 162.405 213.908L162.404 213.908C144.611 210.386 126.972 206.894 120.329 203.073C124.003 201.936 128.957 200.758 135.392 199.534C137.754 199.085 139.999 198.677 142.134 198.307C150.124 200.207 159.53 202.069 168.977 203.939C203.156 210.704 237.861 217.574 207.906 226.716ZM197.756 235.04C197.461 233.506 195.227 232.041 191.656 230.626C192.664 230.43 193.67 230.225 194.675 230.013C200.035 228.881 204.411 227.783 207.906 226.716C210.328 229.283 207.853 232.028 197.756 235.04ZM8.74814 236.943C2.92487 223.675 21.4643 227.015 51.951 232.508L51.9512 232.508C87.1149 238.843 138.173 248.042 186.074 237.924C190.756 236.935 194.623 235.975 197.756 235.04C198.295 237.838 192.385 240.868 176.37 244.251C131.154 253.802 82.959 245.118 49.7671 239.138L49.7666 239.138C27.708 235.164 12.2757 232.383 8.74814 236.943ZM8.74814 236.943C8.4043 237.387 8.17363 237.901 8.06088 238.491C13.5517 246.297 18.0797 251.938 21.791 255.917C18.9503 252.381 15.7228 248.018 12.0643 242.675C10.5681 240.49 9.47062 238.589 8.74814 236.943ZM321.605 229.121C317.103 232.018 314.407 235.103 313.584 238.433C316.016 235.289 318.713 232.181 321.605 229.121Z" fill="#14B8A6" fill-opacity="0.02"/>
<path d="M1430.72 57.5739H1431.72V57.0056L1431.23 56.7147L1430.72 57.5739ZM1430.72 181.411L1431.19 182.294L1431.72 182.012V181.411H1430.72ZM1335.33 200.509L1335.69 199.575L1335.69 199.575L1335.33 200.509ZM1342.2 89.4845L1341.7 90.3489L1341.7 90.3489L1342.2 89.4845ZM1318.6 75.5285L1318.08 76.3789L1318.08 76.3832L1318.09 76.3873L1318.6 75.5285ZM1318.6 75.5263L1319.13 74.6759L1319.11 74.6641L1319.09 74.6531L1318.6 75.5263ZM1318.6 75.5252L1318.09 76.384L1318.1 76.3914L1318.11 76.3984L1318.6 75.5252ZM1424.22 53.7012L1424.73 52.8425L1424.73 52.8425L1424.22 53.7012ZM1073.65 44.6503L1073.34 43.7005L1073.34 43.7005L1073.65 44.6503ZM873.892 56.5176L874.244 55.5814L874.244 55.5814L873.892 56.5176ZM709.316 59.4967L709.601 60.4552L709.601 60.4552L709.316 59.4967ZM547.621 161.608L548.536 161.206L548.536 161.206L547.621 161.608ZM371.7 187.936L371.114 187.126L371.114 187.126L371.7 187.936ZM331.03 173.343L330.817 172.366L330.817 172.366L331.03 173.343ZM208.679 180.428L209.288 179.635L209.288 179.635L208.679 180.428ZM147.544 178.582L147.357 177.599L147.357 177.599L147.544 178.582ZM154.027 221.581L153.833 222.562L153.848 222.565L153.862 222.568L154.027 221.581ZM154.027 221.581L154.221 220.6L154.206 220.597L154.192 220.595L154.027 221.581ZM49.0614 224.133L48.8841 225.117L48.8841 225.117L49.0614 224.133ZM5.75773 235.171L4.93264 235.736L4.93264 235.736L5.75773 235.171ZM12.1172 248.736L11.2921 249.301L11.2921 249.301L12.1172 248.736ZM39.3632 270.655L39.5125 269.667L38.455 269.507L38.3666 270.573L39.3632 270.655ZM148.654 293.38L148.378 294.342L148.513 294.38H148.654V293.38ZM168.127 293.38V294.38L168.424 292.425L168.127 293.38ZM40.929 265.897L41.0783 264.909L40.0207 264.749L39.9324 265.815L40.929 265.897ZM37.0951 260.382L37.2444 259.394L36.1868 259.234L36.0985 260.3L37.0951 260.382ZM185.025 293.38L184.71 294.329L184.864 294.38H185.025V293.38ZM272.856 293.38V294.38H274.651L273.706 292.854L272.856 293.38ZM330.282 207.667L330.868 208.477L330.868 208.477L330.282 207.667ZM294.922 194.98L295.135 195.957L295.135 195.957L294.922 194.98ZM188.545 201.14L187.936 201.933L187.936 201.933L188.545 201.14ZM142.663 190.551L142.849 191.534L142.849 191.534L142.663 190.551ZM198.973 192.252L199.583 191.459L199.583 191.459L198.973 192.252ZM311.669 185.726L311.882 186.703L311.882 186.703L311.669 185.726ZM349.13 199.167L348.544 198.357L348.544 198.357L349.13 199.167ZM290.117 292.649L289.315 293.247L289.315 293.247L290.117 292.649ZM290.668 293.38L289.872 293.986L290.172 294.38H290.668V293.38ZM310.739 293.38V294.38H312.867L311.509 292.742L310.739 293.38ZM307.631 289.426L306.829 290.024L306.829 290.024L307.631 289.426ZM337.26 265.27L336.75 266.13L336.75 266.13L337.26 265.27ZM359.823 293.38L358.827 293.464L358.903 294.38H359.823V293.38ZM380.454 293.38V294.38H381.388L381.451 293.448L380.454 293.38ZM356.523 260.192L356.013 261.052L356.013 261.052L356.523 260.192ZM379.726 254.188L380.236 253.328L380.236 253.328L379.726 254.188ZM405.282 293.38L404.302 293.182L404.059 294.38H405.282V293.38ZM517.259 293.38V294.38H520.303L517.852 292.575L517.259 293.38ZM472.817 269.647L473.247 268.744L473.247 268.744L472.817 269.647ZM500.132 264.829L500.562 263.926L500.562 263.926L500.132 264.829ZM551.389 293.38L550.71 294.114L550.998 294.38H551.389V293.38ZM594.244 293.38V294.38H596.292L595.032 292.765L594.244 293.38ZM535.638 259.223L536.068 258.32L536.068 258.32L535.638 259.223ZM486.584 212.686L486.65 213.684L486.65 213.684L486.584 212.686ZM630.623 222.966L630.28 223.905L630.28 223.905L630.623 222.966ZM781.428 225.547L781.555 226.539L781.555 226.539L781.428 225.547ZM890.592 208.5L890.719 209.492L890.719 209.492L890.592 208.5ZM1013.69 190.279L1014.02 191.225L1014.02 191.225L1013.69 190.279ZM758.773 241.415L758.776 242.415L758.776 242.415L758.773 241.415ZM720.344 281.478L720.23 282.471L720.245 282.473L720.261 282.475L720.344 281.478ZM720.345 281.478L720.46 280.485L720.444 280.483L720.428 280.482L720.345 281.478ZM819.528 293.38L819.398 294.372L819.463 294.38H819.528V293.38ZM892.33 293.38V294.38L892.473 292.391L892.33 293.38ZM762.366 277.363L762.251 278.357L762.251 278.357L762.366 277.363ZM666.819 254.164L666.815 253.164L666.815 253.164L666.819 254.164ZM820.337 272.83L820.451 271.837L820.451 271.837L820.337 272.83ZM982.152 293.38L981.991 294.367L982.071 294.38H982.152V293.38ZM1430.72 293.38V294.38H1431.72V293.38H1430.72ZM1430.72 279.57H1431.72V278.501L1430.65 278.572L1430.72 279.57ZM1420.29 277.593L1420.19 276.598L1420.19 276.598L1420.29 277.593ZM1430.72 276.578L1430.81 277.573L1431.72 277.486V276.578H1430.72ZM1430.72 276.537H1431.72V275.602L1430.78 275.539L1430.72 276.537ZM1301.79 208.884L1302.79 208.772L1302.79 208.772L1301.79 208.884ZM1321.35 157.203L1322.33 157.419L1322.33 157.419L1321.35 157.203ZM1269.9 91.8841L1270.08 90.8994L1270.08 90.8994L1269.9 91.8841ZM995.694 67.1885L995.381 66.2386L995.381 66.2386L995.694 67.1885ZM660.105 80.8634L659.82 79.905L659.82 79.905L660.105 80.8634ZM811.695 78.1193L812.046 77.1832L812.046 77.1832L811.695 78.1193ZM940.59 83.0891L940.277 82.1392L940.277 82.1392L940.59 83.0891ZM766.908 93.4069L766.557 94.3431L766.557 94.3431L766.908 93.4069ZM579.38 150.372L578.464 150.774L578.464 150.774L579.38 150.372ZM623.819 95.9971L624.104 96.9556L624.104 96.9556L623.819 95.9971ZM621.675 134.96L620.759 135.362L620.759 135.362L621.675 134.96ZM552.616 174.751L552.497 173.758L552.497 173.758L552.616 174.751ZM1267.67 104.135L1267.17 104.999L1267.17 104.999L1267.67 104.135ZM1245.39 90.9584L1245.9 90.0996L1245.9 90.0996L1245.39 90.9584ZM995.636 154.689L995.161 153.809L995.161 153.809L995.636 154.689ZM717.142 205.531L717.485 204.592L717.485 204.592L717.142 205.531ZM551.473 193.709L551.539 194.706L551.539 194.706L551.473 193.709ZM514.717 204.485L514.784 205.482L514.784 205.482L514.717 204.485ZM667.314 215.375L666.97 216.314L667.314 215.375ZM827.077 218.109L826.951 217.117L826.951 217.117L827.077 218.109ZM1054.01 143.041L1054.49 143.921L1054.49 143.921L1054.01 143.041ZM1111.22 124.156L1111.39 123.171L1111.39 123.171L1111.22 124.156ZM1136.97 127.001L1137.44 127.881L1137.44 127.881L1136.97 127.001ZM1176.46 110.695L1176.28 111.68L1176.28 111.68L1176.46 110.695ZM1157.73 167.937L1158.06 168.882L1158.06 168.882L1157.73 167.937ZM1157.72 167.94L1157.4 166.994L1157.4 166.995L1157.72 167.94ZM1073.14 180.746L1073.46 181.692L1073.46 181.692L1073.14 180.746ZM705.659 248.426L705.663 249.426L705.663 249.426L705.659 248.426ZM1138.94 225.881L1137.95 225.992L1137.95 225.992L1138.94 225.881ZM1236.72 210.749L1237.08 209.814L1237.08 209.814L1236.72 210.749ZM1223.85 170.858L1224.8 171.142L1224.81 171.109L1224.82 171.075L1223.85 170.858ZM1223.85 170.86L1222.89 170.575L1222.88 170.609L1222.87 170.643L1223.85 170.86ZM1205.84 218.583L1204.85 218.696L1204.85 218.696L1205.84 218.583ZM1205.83 218.463L1204.84 218.575L1204.84 218.576L1205.83 218.463ZM1155.95 180.944L1156.92 181.183L1156.92 181.172L1156.92 181.16L1155.95 180.944ZM1155.95 180.947L1154.98 180.708L1154.97 180.719L1154.97 180.73L1155.95 180.947ZM1168.1 218.599L1167.75 219.534L1167.75 219.534L1168.1 218.599ZM487.578 196.204L487.459 195.211L487.459 195.211L487.578 196.204ZM515.77 187.023L515.651 186.03L515.651 186.03L515.77 187.023ZM162.405 213.908L162.599 212.927L162.572 212.922L162.546 212.918L162.405 213.908ZM162.404 213.908L162.21 214.889L162.236 214.894L162.263 214.898L162.404 213.908ZM135.392 199.534L135.205 198.552L135.205 198.552L135.392 199.534ZM168.977 203.939L168.783 204.92L168.783 204.92L168.977 203.939ZM194.675 230.013L194.882 230.991L194.882 230.991L194.675 230.013ZM51.951 232.508L52.1679 231.532L52.1482 231.527L52.1283 231.524L51.951 232.508ZM51.9512 232.508L51.7343 233.484L51.754 233.489L51.7739 233.492L51.9512 232.508ZM186.074 237.924L185.868 236.946L185.868 236.946L186.074 237.924ZM176.37 244.251L176.163 243.272L176.163 243.272L176.37 244.251ZM49.7671 239.138L49.5882 240.122L49.5898 240.122L49.7671 239.138ZM49.7666 239.138L49.9455 238.154L49.9439 238.154L49.7666 239.138ZM12.0643 242.675L11.2392 243.24L11.2392 243.24L12.0643 242.675ZM1429.72 57.5739V181.411H1431.72V57.5739H1429.72ZM1334.98 201.444C1345.75 205.546 1361.36 205.222 1378.42 201.682C1395.51 198.135 1414.19 191.327 1431.19 182.294L1430.25 180.528C1413.41 189.478 1394.9 196.218 1378.01 199.724C1361.08 203.238 1345.92 203.472 1335.69 199.575L1334.98 201.444ZM1323.28 194.154C1326.02 197.034 1329.83 199.485 1334.98 201.444L1335.69 199.575C1330.75 197.695 1327.22 195.39 1324.72 192.775L1323.28 194.154ZM1324.47 194.349C1347.97 181.964 1368.31 164.83 1374.88 146.061C1378.18 136.624 1378 126.784 1373 117.014C1368.02 107.275 1358.3 97.6905 1342.71 88.62L1341.7 90.3489C1357.1 99.3074 1366.47 108.646 1371.22 117.924C1375.95 127.17 1376.13 136.438 1372.99 145.401C1366.68 163.431 1346.92 180.258 1323.53 192.58L1324.47 194.349ZM1342.71 88.62C1334.4 83.7863 1326.58 79.1232 1319.12 74.6698L1318.09 76.3873C1325.56 80.8401 1333.38 85.5087 1341.7 90.3489L1342.71 88.62ZM1319.13 74.6782L1319.13 74.6759L1318.07 76.3766L1318.08 76.3789L1319.13 74.6782ZM1319.09 74.6531L1319.09 74.6521L1318.11 76.3984L1318.11 76.3994L1319.09 74.6531ZM1319.11 74.6665C1283.86 53.6355 1256.4 37.243 1222.1 30.0178C1187.78 22.789 1146.71 24.7499 1084.18 40.1705L1084.66 42.1124C1147.04 26.727 1187.78 24.8334 1221.69 31.9748C1255.61 39.1198 1282.78 55.3222 1318.09 76.384L1319.11 74.6665ZM1424.73 52.8425C1379.38 25.7844 1345.96 5.82605 1297.95 1.08169C1249.98 -3.65896 1187.55 6.79378 1084.11 40.1898L1084.72 42.0931C1188.11 8.71242 1250.21 -1.62593 1297.75 3.072C1345.25 7.76622 1378.31 27.4761 1423.71 54.56L1424.73 52.8425ZM1431.23 56.7147C1429.04 55.4086 1426.87 54.1176 1424.73 52.8425L1423.71 54.56C1425.85 55.8351 1428.01 57.1265 1430.21 58.4331L1431.23 56.7147ZM1073.34 43.7005C1062.23 47.3584 1051.8 50.5681 1042.01 53.3702L1042.56 55.293C1052.38 52.4831 1062.83 49.2656 1073.97 45.6002L1073.34 43.7005ZM1084.11 40.1898C1080.57 41.333 1076.98 42.5031 1073.34 43.7005L1073.97 45.6002C1077.6 44.404 1081.19 43.2351 1084.72 42.0931L1084.11 40.1898ZM1084.18 40.1705C1063.94 45.1617 1041.45 51.5642 1016.2 59.5247L1016.81 61.4321C1042.02 53.4812 1064.47 47.0911 1084.66 42.1124L1084.18 40.1705ZM1016.25 59.5101C1011.4 60.7616 1006.41 62.0953 1001.28 63.5133L1001.81 65.4411C1006.93 64.026 1011.91 62.6953 1016.75 61.4468L1016.25 59.5101ZM1001.34 63.4978C967.055 70.568 942.575 71.3157 923.046 68.9453C903.516 66.5748 888.887 61.0821 874.244 55.5814L873.541 57.4537C888.184 62.9548 903.013 68.5285 922.805 70.9307C942.596 73.333 967.299 72.5596 1001.75 65.4566L1001.34 63.4978ZM874.244 55.5814C857.036 49.1171 839.83 42.6495 814.85 41.4207C789.886 40.1927 757.222 44.1967 709.031 58.5383L709.601 60.4552C757.664 46.1517 790.09 42.2052 814.751 43.4183C839.396 44.6306 856.35 50.9959 873.541 57.4537L874.244 55.5814ZM709.031 58.5383C675.507 68.5147 653.481 77.797 639.304 86.4597L640.347 88.1663C654.309 79.6349 676.146 70.4114 709.601 60.4552L709.031 58.5383ZM639.502 86.3667C623.647 91.7825 611.423 96.9675 602.072 101.938L603.011 103.704C612.24 98.7984 624.359 93.6528 640.149 88.2594L639.502 86.3667ZM602.213 101.876C584.666 107.98 571.988 113.773 562.95 119.286C553.917 124.795 548.466 130.057 545.447 135.12C539.342 145.355 543.377 154.432 546.705 162.01L548.536 161.206C545.168 153.537 541.644 145.4 547.164 136.144C549.957 131.461 555.115 126.407 563.992 120.993C572.864 115.581 585.398 109.842 602.87 103.765L602.213 101.876ZM546.705 162.01C547.772 164.439 548.761 166.695 549.394 168.845C550.026 170.989 550.279 172.945 549.933 174.768L551.898 175.141C552.326 172.884 551.991 170.581 551.313 168.279C550.636 165.984 549.59 163.607 548.536 161.206L546.705 162.01ZM550.796 173.962C500.48 180.002 458.912 185.679 427.016 191.732C395.175 197.775 372.805 204.22 361.022 211.872L362.111 213.549C373.519 206.141 395.51 199.747 427.389 193.697C459.213 187.657 500.724 181.987 551.035 175.947L550.796 173.962ZM361.271 211.755C353.53 214.15 347.175 216.665 342.28 219.347L343.241 221.101C347.974 218.508 354.189 216.04 361.862 213.666L361.271 211.755ZM342.469 219.267C333.283 222.066 326.1 225.04 321.064 228.28L322.146 229.962C326.955 226.868 333.935 223.958 343.052 221.181L342.469 219.267ZM322.332 229.808C336.996 214.291 356.708 200.021 372.286 188.746L371.114 187.126C355.568 198.377 335.695 212.756 320.878 228.435L322.332 229.808ZM372.286 188.746C380.341 182.916 387.322 177.865 391.867 173.881C394.127 171.899 395.866 170.113 396.821 168.574C397.298 167.805 397.636 167.01 397.679 166.224C397.726 165.382 397.43 164.623 396.795 164.031C396.201 163.477 395.364 163.118 394.382 162.881C393.388 162.641 392.158 162.505 390.69 162.463C387.755 162.379 383.743 162.667 378.517 163.343C368.056 164.696 352.581 167.623 330.817 172.366L331.243 174.32C352.998 169.579 368.403 166.668 378.773 165.327C383.962 164.656 387.853 164.383 390.633 164.462C392.023 164.502 393.103 164.629 393.913 164.825C394.735 165.024 395.195 165.273 395.432 165.494C395.627 165.677 395.697 165.857 395.682 166.113C395.665 166.424 395.516 166.884 395.122 167.52C394.333 168.791 392.788 170.413 390.548 172.377C386.091 176.284 379.203 181.27 371.114 187.126L372.286 188.746ZM330.817 172.366C279.571 183.534 251.454 187.111 234.987 187.004C226.766 186.951 221.502 185.979 217.736 184.607C213.983 183.24 211.658 181.457 209.288 179.635L208.07 181.221C210.455 183.055 212.988 185.006 217.051 186.486C221.101 187.961 226.61 188.95 234.974 189.004C251.679 189.112 279.983 185.491 331.243 174.32L330.817 172.366ZM209.288 179.635C207.476 178.242 205.612 176.806 203.11 175.62C200.598 174.43 197.485 173.508 193.145 173.057C184.502 172.158 170.916 173.118 147.357 177.599L147.731 179.564C171.254 175.089 184.601 174.179 192.938 175.046C197.088 175.478 199.976 176.348 202.253 177.427C204.538 178.51 206.248 179.821 208.07 181.221L209.288 179.635ZM147.357 177.599C139.548 179.085 133.6 180.516 129.259 181.905C124.965 183.279 122.096 184.656 120.598 186.112C119.829 186.859 119.325 187.72 119.299 188.69C119.272 189.662 119.73 190.514 120.392 191.23C121.68 192.62 124.076 193.858 127.093 195.008L127.806 193.139C124.801 191.994 122.803 190.889 121.86 189.871C121.407 189.382 121.291 189.013 121.298 188.745C121.305 188.476 121.443 188.079 121.991 187.547C123.126 186.444 125.591 185.179 129.869 183.81C134.099 182.456 139.959 181.042 147.731 179.564L147.357 177.599ZM127.164 193.115C124.393 193.941 122.215 194.757 120.583 195.573C118.978 196.376 117.79 197.232 117.137 198.195C116.799 198.693 116.591 199.24 116.568 199.826C116.545 200.412 116.71 200.96 116.996 201.454C117.545 202.405 118.577 203.219 119.83 203.94L120.827 202.206C119.665 201.537 119.009 200.94 118.727 200.453C118.597 200.228 118.561 200.051 118.566 199.905C118.572 199.758 118.624 199.566 118.793 199.317C119.153 198.786 119.966 198.118 121.478 197.362C122.965 196.618 125.022 195.84 127.735 195.032L127.164 193.115ZM120.033 202.117C117.087 203.029 114.887 203.935 113.38 204.854C111.926 205.741 110.862 206.796 110.719 208.102C110.57 209.461 111.459 210.56 112.558 211.398C113.694 212.264 115.328 213.069 117.295 213.834C125.148 216.888 139.517 219.728 153.833 222.562L154.221 220.6C139.81 217.748 125.665 214.944 118.019 211.97C116.111 211.228 114.684 210.503 113.771 209.807C112.822 209.084 112.677 208.591 112.707 208.32C112.742 207.997 113.07 207.385 114.421 206.562C115.72 205.77 117.738 204.921 120.625 204.028L120.033 202.117ZM153.862 222.568L153.863 222.568L154.192 220.595L154.191 220.595L153.862 222.568ZM153.833 222.562C168.615 225.488 183.344 228.408 191.288 231.556L192.025 229.697C183.866 226.464 168.905 223.507 154.221 220.6L153.833 222.562ZM191.465 229.645C140.554 239.59 86.7031 229.898 49.2387 223.148L48.8841 225.117C86.2964 231.857 140.513 241.636 191.848 231.608L191.465 229.645ZM49.2387 223.148C39.9442 221.474 31.6447 219.978 24.6663 219.017C17.708 218.057 11.9689 217.614 7.82589 218.085C5.75414 218.321 3.99046 218.793 2.65729 219.615C1.28622 220.46 0.386391 221.668 0.0991352 223.259C-0.17896 224.8 0.136398 226.591 0.93695 228.619C1.74146 230.656 3.07046 233.017 4.93264 235.736L6.58283 234.606C4.76574 231.953 3.52587 229.729 2.79715 227.884C2.06446 226.029 1.88219 224.64 2.06732 223.614C2.24329 222.64 2.76753 221.896 3.70658 221.318C4.68353 220.716 6.11604 220.292 8.05176 220.072C11.9236 219.632 17.4446 220.04 24.3933 220.998C31.3219 221.953 39.5762 223.44 48.8841 225.117L49.2387 223.148ZM4.93264 235.736C5.72083 236.887 6.49079 237.997 7.24296 239.066L8.8788 237.915C8.13167 236.853 7.36649 235.751 6.58282 234.606L4.93264 235.736ZM7.07868 238.303C6.81539 239.68 7.09174 241.271 7.79088 243.052C8.494 244.844 9.65983 246.917 11.2921 249.301L12.9423 248.171C11.3552 245.853 10.2796 243.919 9.65266 242.322C9.02179 240.714 8.87964 239.533 9.04308 238.678L7.07868 238.303ZM11.2921 249.301C16.4923 256.895 20.7873 262.421 24.3181 266.353C27.839 270.275 30.6402 272.659 32.8599 273.916C35.053 275.158 36.9242 275.426 38.3431 274.594C39.7203 273.785 40.2402 272.181 40.3598 270.738L38.3666 270.573C38.2661 271.786 37.8627 272.556 37.3307 272.869C36.8403 273.157 35.8163 273.292 33.8455 272.176C31.9012 271.075 29.2697 268.875 25.8064 265.017C22.3529 261.171 18.1122 255.72 12.9423 248.171L11.2921 249.301ZM39.2139 271.644C83.1916 278.285 119.128 285.949 148.378 294.342L148.93 292.419C119.577 283.997 83.5521 276.317 39.5125 269.667L39.2139 271.644ZM168.127 292.38H148.654V294.38H168.127V292.38ZM40.7797 266.886C93.2511 274.81 134.918 284.108 167.83 294.335L168.424 292.425C135.389 282.16 93.618 272.843 41.0783 264.909L40.7797 266.886ZM21.0114 256.544C24.5881 260.996 27.5777 264.173 30.0664 266.356C32.5414 268.527 34.5824 269.77 36.265 270.264C37.9924 270.771 39.4396 270.505 40.4636 269.531C41.4196 268.622 41.819 267.265 41.9256 265.98L39.9324 265.815C39.8445 266.875 39.532 267.657 39.0852 268.082C38.7063 268.442 38.0595 268.707 36.8286 268.345C35.5528 267.971 33.771 266.945 31.3852 264.852C29.0132 262.772 26.104 259.689 22.5706 255.291L21.0114 256.544ZM36.0985 260.3C36.0155 261.302 35.7464 262.104 35.3378 262.614C34.9708 263.072 34.4393 263.368 33.5639 263.303C32.6242 263.235 31.2679 262.743 29.4057 261.463C27.5571 260.193 25.2836 258.196 22.5223 255.235L21.0597 256.599C23.879 259.622 26.263 261.73 28.2729 263.111C30.2692 264.484 31.9724 265.192 33.4177 265.298C34.9271 265.409 36.1059 264.854 36.8989 263.864C37.6504 262.926 37.991 261.681 38.0917 260.465L36.0985 260.3ZM185.341 292.431C148.04 280.034 99.6375 268.816 37.2444 259.394L36.9458 261.371C99.2657 270.782 147.55 281.979 184.71 294.329L185.341 292.431ZM272.856 292.38H185.025V294.38H272.856V292.38ZM329.696 206.857C314.997 217.495 295.823 231.367 282.698 246.423C276.134 253.953 271.021 261.847 268.765 269.849C266.498 277.89 267.126 286.021 272.006 293.907L273.706 292.854C269.151 285.494 268.559 277.951 270.69 270.392C272.832 262.793 277.735 255.16 284.206 247.737C297.152 232.886 316.125 219.148 330.868 208.477L329.696 206.857ZM295.135 195.957C314.049 191.835 327.438 189.305 336.449 188.139C340.958 187.556 344.333 187.32 346.74 187.389C347.943 187.423 348.872 187.533 349.564 187.701C350.269 187.871 350.644 188.081 350.826 188.251C350.968 188.383 351.013 188.502 351.003 188.687C350.99 188.926 350.872 189.304 350.535 189.848C349.86 190.935 348.53 192.336 346.584 194.042C342.714 197.434 336.732 201.765 329.696 206.857L330.868 208.477C337.87 203.41 343.945 199.014 347.902 195.545C349.869 193.821 351.393 192.258 352.234 190.902C352.655 190.225 352.96 189.512 353 188.797C353.043 188.027 352.771 187.329 352.19 186.788C351.65 186.285 350.897 185.965 350.034 185.757C349.157 185.545 348.078 185.426 346.797 185.39C344.235 185.317 340.739 185.568 336.192 186.156C327.091 187.333 313.632 189.879 294.709 194.003L295.135 195.957ZM187.936 201.933C190.011 203.528 192.226 205.235 195.779 206.529C199.319 207.819 204.125 208.679 211.406 208.726C225.946 208.821 250.566 205.67 295.135 195.957L294.709 194.003C250.154 203.712 225.72 206.819 211.419 206.727C204.281 206.68 199.72 205.836 196.464 204.65C193.222 203.469 191.214 201.93 189.154 200.347L187.936 201.933ZM142.304 199.293C159.718 196.279 169.708 195.866 176.049 196.735C179.202 197.167 181.441 197.915 183.239 198.812C185.047 199.715 186.442 200.785 187.936 201.933L189.154 200.347C187.671 199.207 186.135 198.023 184.132 197.023C182.119 196.018 179.666 195.212 176.32 194.753C169.663 193.841 159.424 194.3 141.963 197.322L142.304 199.293ZM127.093 195.008C130.942 196.475 136.066 197.892 141.903 199.28L142.365 197.335C136.551 195.952 131.529 194.559 127.806 193.139L127.093 195.008ZM142.476 189.569C136.066 190.788 131.017 191.968 127.164 193.115L127.735 195.032C131.499 193.911 136.476 192.746 142.849 191.534L142.476 189.569ZM199.583 191.459C197.913 190.176 196.19 188.849 193.877 187.752C191.555 186.651 188.678 185.801 184.673 185.384C176.7 184.555 164.176 185.441 142.476 189.569L142.849 191.534C164.515 187.412 176.799 186.576 184.466 187.373C188.281 187.77 190.933 188.57 193.02 189.559C195.117 190.553 196.686 191.755 198.364 193.045L199.583 191.459ZM311.456 184.749C264.255 195.036 238.363 198.328 223.206 198.23C215.639 198.181 210.8 197.287 207.342 196.027C203.898 194.772 201.764 193.137 199.583 191.459L198.364 193.045C200.561 194.734 202.903 196.538 206.657 197.906C210.399 199.269 215.483 200.18 223.193 200.23C238.589 200.33 264.667 196.993 311.882 186.703L311.456 184.749ZM349.716 199.977C357.135 194.608 363.568 189.953 367.758 186.281C369.841 184.455 371.45 182.803 372.336 181.375C372.779 180.661 373.097 179.916 373.138 179.173C373.183 178.375 372.901 177.653 372.299 177.091C371.738 176.568 370.951 176.233 370.041 176.013C369.118 175.79 367.979 175.665 366.624 175.626C363.915 175.548 360.214 175.814 355.399 176.437C345.76 177.683 331.504 180.381 311.456 184.749L311.882 186.703C331.921 182.337 346.107 179.655 355.655 178.42C360.434 177.803 364.013 177.552 366.567 177.625C367.844 177.662 368.833 177.778 369.571 177.957C370.323 178.138 370.731 178.364 370.935 178.554C371.098 178.706 371.153 178.85 371.141 179.062C371.127 179.33 370.997 179.741 370.637 180.321C369.917 181.481 368.501 182.969 366.439 184.777C362.337 188.373 355.997 192.963 348.544 198.357L349.716 199.977ZM290.919 292.052C284.952 284.046 283.621 275.83 285.436 267.607C287.263 259.335 292.289 251.002 299.149 242.887C312.874 226.649 333.664 211.595 349.716 199.977L348.544 198.357C332.541 209.939 311.534 225.136 297.621 241.595C290.663 249.828 285.409 258.454 283.483 267.176C281.547 275.949 282.991 284.762 289.315 293.247L290.919 292.052ZM291.463 292.775C291.281 292.536 291.1 292.294 290.919 292.052L289.315 293.247C289.5 293.495 289.686 293.741 289.872 293.986L291.463 292.775ZM310.739 292.38H290.668V294.38H310.739V292.38ZM306.829 290.024C307.86 291.407 308.907 292.738 309.969 294.019L311.509 292.742C310.469 291.488 309.443 290.184 308.433 288.828L306.829 290.024ZM312.793 237.821C306.29 246.225 301.594 254.963 300.129 263.772C298.657 272.623 300.46 281.479 306.829 290.024L308.433 288.828C302.389 280.72 300.719 272.415 302.102 264.1C303.491 255.745 307.977 247.313 314.374 239.045L312.793 237.821ZM337.77 264.409C328.855 259.124 322.578 254.352 318.767 250.022C314.953 245.69 313.741 241.963 314.554 238.673L312.613 238.193C311.573 242.398 313.251 246.784 317.265 251.344C321.282 255.907 327.769 260.806 336.75 266.13L337.77 264.409ZM360.82 293.297C360.019 283.724 353.058 273.472 337.77 264.409L336.75 266.13C351.748 275.02 358.102 284.791 358.827 293.464L360.82 293.297ZM380.454 292.38H359.823V294.38H380.454V292.38ZM356.013 261.052C373.804 271.598 380.136 283.315 379.456 293.313L381.451 293.448C382.204 282.381 375.146 270.069 357.033 259.332L356.013 261.052ZM342.28 219.347C337.517 221.957 334.056 224.768 332.076 227.859C330.065 230.999 329.617 234.379 330.799 237.949C331.962 241.463 334.679 245.097 338.851 248.897C343.034 252.707 348.747 256.745 356.013 261.052L357.033 259.332C349.831 255.062 344.243 251.103 340.198 247.418C336.143 243.725 333.706 240.368 332.697 237.321C331.708 234.329 332.071 231.576 333.76 228.938C335.482 226.25 338.613 223.637 343.241 221.101L342.28 219.347ZM356.551 215.472C351.424 216.707 346.726 217.97 342.469 219.267L343.052 221.181C347.264 219.897 351.923 218.645 357.02 217.416L356.551 215.472ZM380.236 253.328C367.099 245.54 358.957 238.728 355.349 232.73C353.561 229.758 352.924 227.046 353.276 224.537C353.629 222.025 354.994 219.574 357.482 217.162L356.09 215.726C353.381 218.352 351.727 221.187 351.295 224.259C350.863 227.335 351.677 230.506 353.635 233.761C357.518 240.216 366.043 247.239 379.216 255.048L380.236 253.328ZM406.262 293.578C408.837 280.837 401.724 266.066 380.236 253.328L379.216 255.048C400.35 267.576 406.635 281.635 404.302 293.182L406.262 293.578ZM517.259 292.38H405.282V294.38H517.259V292.38ZM472.387 270.55C489.818 278.846 506.852 286.957 516.666 294.186L517.852 292.575C507.845 285.205 490.595 277.001 473.247 268.744L472.387 270.55ZM445.108 216.24C437.552 217.58 431.603 219.092 427.071 220.762C422.555 222.426 419.363 224.277 417.405 226.346C415.404 228.461 414.694 230.811 415.2 233.293C415.689 235.695 417.292 238.088 419.601 240.445C424.226 245.166 432.083 250.138 441.391 255.182C450.722 260.239 461.618 265.425 472.387 270.55L473.247 268.744C462.465 263.613 451.62 258.451 442.344 253.424C433.043 248.383 425.425 243.532 421.03 239.046C418.83 236.8 417.536 234.743 417.159 232.893C416.798 231.123 417.251 229.418 418.857 227.721C420.507 225.978 423.366 224.259 427.762 222.638C432.143 221.024 437.966 219.538 445.457 218.21L445.108 216.24ZM500.562 263.926C482.215 255.194 463.736 246.396 452.259 238.266C446.484 234.176 442.69 230.393 441.436 227.029C440.829 225.4 440.831 223.902 441.467 222.48C442.118 221.027 443.481 219.541 445.815 218.071L444.749 216.379C442.222 217.97 440.51 219.723 439.642 221.663C438.76 223.633 438.8 225.682 439.562 227.727C441.047 231.713 445.313 235.798 451.103 239.898C462.755 248.151 481.422 257.032 499.703 265.732L500.562 263.926ZM552.069 292.647C547.344 288.273 539.724 283.605 530.708 278.794C521.672 273.973 511.147 268.963 500.562 263.926L499.703 265.732C510.298 270.775 520.779 275.763 529.766 280.558C538.772 285.364 546.191 289.931 550.71 294.114L552.069 292.647ZM594.244 292.38H551.389V294.38H594.244V292.38ZM535.209 260.126C548.043 266.234 560.723 272.269 571.165 278.019C581.655 283.796 589.714 289.197 593.455 293.995L595.032 292.765C591.005 287.6 582.588 282.027 572.13 276.268C561.625 270.482 548.887 264.42 536.068 258.32L535.209 260.126ZM469.582 213.715C468.64 217.41 470.493 221.173 473.869 224.828C477.274 228.513 482.438 232.322 488.691 236.194C501.205 243.944 518.346 252.1 535.209 260.126L536.068 258.32C519.17 250.278 502.144 242.173 489.744 234.494C483.539 230.652 478.558 226.955 475.338 223.47C472.09 219.955 470.838 216.884 471.52 214.209L469.582 213.715ZM486.517 211.689C480.762 212.074 475.416 212.5 470.457 212.967L470.644 214.958C475.583 214.493 480.911 214.068 486.65 213.684L486.517 211.689ZM630.966 222.026C620.01 218.023 608.408 213.784 587.262 211.381C566.146 208.98 535.532 208.41 486.517 211.689L486.65 213.684C535.609 210.409 566.089 210.987 587.036 213.368C607.953 215.746 619.384 219.923 630.28 223.905L630.966 222.026ZM781.302 224.555C728.034 231.343 696.275 232.833 674.924 231.568C653.62 230.306 642.667 226.302 630.966 222.026L630.28 223.905C642.057 228.208 653.22 232.285 674.806 233.564C696.344 234.84 728.248 233.332 781.555 226.539L781.302 224.555ZM827.84 217.005C813.395 219.889 797.925 222.436 781.302 224.555L781.555 226.539C798.223 224.414 813.739 221.86 828.231 218.967L827.84 217.005ZM874.398 209.487C859.907 212.336 844.447 214.866 827.908 216.994L828.163 218.978C844.745 216.844 860.248 214.307 874.784 211.449L874.398 209.487ZM874.709 211.461C879.851 210.853 885.184 210.197 890.719 209.492L890.466 207.508C884.937 208.213 879.609 208.868 874.474 209.475L874.709 211.461ZM890.719 209.492C1012.26 194.003 1080.49 158.611 1132.73 130.425L1131.78 128.664C1079.65 156.796 1011.66 192.063 890.466 207.508L890.719 209.492ZM1131.92 130.484C1141.46 133.948 1147.67 138.153 1151.61 142.774C1155.54 147.382 1157.28 152.472 1157.75 157.824L1159.75 157.647C1159.24 151.953 1157.38 146.45 1153.13 141.476C1148.9 136.515 1142.36 132.147 1132.6 128.604L1131.92 130.484ZM1158.72 156.736C1144.67 157.145 1127.28 161.716 1106.11 168.552L1106.72 170.455C1127.9 163.619 1145.05 159.135 1158.78 158.735L1158.72 156.736ZM1106.62 168.525C1096.37 166.341 1083.7 167.9 1068.34 171.793C1052.96 175.691 1034.75 181.968 1013.37 189.334L1014.02 191.225C1035.42 183.849 1053.55 177.604 1068.83 173.732C1084.13 169.855 1096.42 168.397 1106.21 170.481L1106.62 168.525ZM1013.37 189.334C969.922 204.302 913.251 223.826 840.165 237.323L840.528 239.29C913.773 225.763 970.565 206.196 1014.02 191.225L1013.37 189.334ZM840.273 237.309C814.465 239.207 787.317 240.31 758.769 240.415L758.776 242.415C787.372 242.31 814.566 241.205 840.42 239.303L840.273 237.309ZM758.769 240.415C714.605 240.576 685.834 241.381 669.284 242.71C661.049 243.371 655.722 244.169 653.04 245.129C652.364 245.37 651.78 245.648 651.349 245.984C650.923 246.318 650.499 246.832 650.513 247.536C650.527 248.207 650.936 248.713 651.325 249.053C651.731 249.408 652.279 249.729 652.911 250.027L653.764 248.218C653.206 247.955 652.847 247.727 652.641 247.547C652.418 247.351 652.51 247.334 652.513 247.496C652.517 247.691 652.39 247.709 652.581 247.56C652.767 247.415 653.12 247.224 653.713 247.012C656.107 246.156 661.172 245.368 669.444 244.703C685.91 243.381 714.613 242.576 758.776 242.415L758.769 240.415ZM608.324 254.278C608.078 254.128 607.939 254.009 607.869 253.933C607.798 253.854 607.849 253.876 607.861 253.992C607.894 254.311 607.619 254.285 608.119 254.004C608.545 253.764 609.286 253.495 610.421 253.22C611.541 252.949 612.984 252.686 614.776 252.435C621.956 251.429 634.458 250.642 653.365 250.122L653.31 248.123C634.402 248.643 621.8 249.431 614.499 250.454C612.67 250.711 611.157 250.984 609.951 251.276C608.761 251.564 607.807 251.885 607.138 252.261C606.542 252.596 605.77 253.213 605.872 254.198C605.918 254.648 606.145 255.009 606.387 255.276C606.631 255.545 606.943 255.778 607.28 255.984L608.324 254.278ZM720.459 280.485C668.282 274.471 618.319 268.712 592.328 264.047C585.825 262.879 580.872 261.789 577.77 260.792C576.193 260.286 575.21 259.838 574.732 259.479C574.482 259.292 574.522 259.241 574.551 259.357C574.604 259.573 574.475 259.7 574.518 259.657C574.591 259.584 574.796 259.439 575.241 259.259C575.668 259.086 576.247 258.907 576.999 258.728C578.5 258.369 580.6 258.027 583.359 257.709C588.872 257.073 596.914 256.542 607.84 256.131L607.765 254.132C596.822 254.544 588.719 255.078 583.13 255.722C580.338 256.044 578.147 256.397 576.534 256.783C575.727 256.976 575.043 257.182 574.49 257.406C573.954 257.623 573.461 257.888 573.11 258.236C572.728 258.615 572.446 259.174 572.609 259.835C572.747 260.395 573.159 260.8 573.532 261.08C574.3 261.655 575.566 262.185 577.159 262.697C580.397 263.737 585.463 264.846 591.975 266.015C618.044 270.694 668.09 276.462 720.23 282.471L720.459 280.485ZM720.428 280.482L720.427 280.482L720.261 282.475L720.262 282.475L720.428 280.482ZM819.658 292.389C789.758 288.472 754.641 284.424 720.46 280.485L720.231 282.472C754.416 286.412 789.516 290.457 819.398 294.372L819.658 292.389ZM892.33 292.38H819.528V294.38H892.33V292.38ZM892.473 292.391C856.567 287.214 808.714 281.699 762.48 276.37L762.251 278.357C808.495 283.687 856.316 289.198 892.187 294.37L892.473 292.391ZM762.48 276.37C725.011 272.051 688.604 267.855 660.453 264.058C646.377 262.16 634.378 260.363 625.349 258.703C620.833 257.873 617.074 257.079 614.175 256.327C611.239 255.565 609.295 254.872 608.324 254.278L607.28 255.984C608.533 256.751 610.745 257.503 613.673 258.263C616.638 259.032 620.449 259.836 624.987 260.67C634.064 262.339 646.1 264.141 660.186 266.04C688.36 269.84 724.789 274.039 762.251 278.357L762.48 276.37ZM607.84 256.131C622.252 255.588 641.65 255.256 666.822 255.164L666.815 253.164C641.632 253.256 622.209 253.588 607.765 254.132L607.84 256.131ZM666.822 255.164C669.235 255.155 671.636 255.138 674.025 255.113L674.004 253.113C671.619 253.138 669.223 253.155 666.815 253.164L666.822 255.164ZM673.841 255.098C704.117 260.442 760.99 266.997 820.222 273.824L820.451 271.837C761.184 265.006 704.39 258.46 674.189 253.128L673.841 255.098ZM820.222 273.824C879.978 280.711 942.151 287.878 981.991 294.367L982.313 292.393C942.415 285.894 880.185 278.722 820.451 271.837L820.222 273.824ZM1430.72 292.38H982.152V294.38H1430.72V292.38ZM1429.72 279.57V293.38H1431.72V279.57H1429.72ZM1372.57 282.974C1392.12 282.764 1411.85 281.834 1430.78 280.568L1430.65 278.572C1411.74 279.837 1392.05 280.765 1372.54 280.974L1372.57 282.974ZM1420.19 276.598C1406.03 277.982 1389.82 279.567 1372.47 280.978L1372.64 282.971C1390 281.559 1406.23 279.972 1420.39 278.588L1420.19 276.598ZM1430.62 275.583C1427.29 275.904 1423.81 276.244 1420.19 276.598L1420.39 278.588C1424 278.235 1427.48 277.894 1430.81 277.573L1430.62 275.583ZM1429.72 276.537V276.578H1431.72V276.537H1429.72ZM1430.78 275.539C1396.94 273.252 1366.14 267.793 1343.19 257.25C1320.26 246.717 1305.31 231.189 1302.79 208.772L1300.8 208.996C1303.43 232.353 1319.05 248.362 1342.35 259.067C1365.63 269.761 1396.72 275.241 1430.65 277.534L1430.78 275.539ZM1302.79 208.772C1302.58 206.983 1302.37 205.236 1302.14 203.53L1300.16 203.794C1300.39 205.486 1300.6 207.22 1300.8 208.996L1302.79 208.772ZM1301.5 204.599C1309.28 201.712 1317.04 198.262 1324.47 194.349L1323.53 192.58C1316.19 196.451 1308.51 199.866 1300.8 202.724L1301.5 204.599ZM1320.38 156.986C1318.83 163.953 1317.29 170.853 1317.26 177.159C1317.22 183.503 1318.7 189.355 1323.28 194.154L1324.72 192.775C1320.62 188.467 1319.23 183.183 1319.26 177.17C1319.29 171.12 1320.77 164.442 1322.33 157.419L1320.38 156.986ZM1269.73 92.8687C1301.36 98.4763 1315.23 108.306 1320.66 119.576C1326.12 130.925 1323.24 144.075 1320.38 156.986L1322.33 157.419C1325.16 144.68 1328.28 130.795 1322.46 118.708C1316.6 106.543 1301.89 96.5394 1270.08 90.8994L1269.73 92.8687ZM1243.07 90.5693C1251.51 90.4819 1260.33 91.2036 1269.73 92.8687L1270.08 90.8994C1260.57 89.2138 1251.62 88.4807 1243.05 88.5694L1243.07 90.5693ZM1042.5 55.3088C1093.72 44.1846 1128.33 43.8228 1157.79 50.7744C1187.28 57.7311 1211.69 72.0272 1242.55 90.4282L1243.57 88.7105C1212.76 70.3319 1188.09 55.8664 1158.25 48.8278C1128.4 41.7841 1093.46 42.1932 1042.07 53.3544L1042.5 55.3088ZM1016.2 59.5247C1013.7 60.3156 1011.16 61.1218 1008.6 61.9435L1009.21 63.848C1011.77 63.0272 1014.3 62.222 1016.81 61.4321L1016.2 59.5247ZM1042.07 53.3544C1033.9 55.1297 1025.31 57.1771 1016.25 59.5101L1016.75 61.4468C1025.79 59.1195 1034.35 57.0781 1042.5 55.3088L1042.07 53.3544ZM1009.12 63.8717C1019.4 61.576 1030.51 58.7413 1042.56 55.293L1042.01 53.3702C1029.99 56.8089 1018.92 59.6336 1008.69 61.9198L1009.12 63.8717ZM1001.28 63.5133C983.256 68.4948 963.501 74.5167 941.707 81.6691L942.331 83.5694C964.101 76.4247 983.825 70.4125 1001.81 65.4411L1001.28 63.5133ZM1008.69 61.9198C1006.19 62.4775 1003.74 63.0031 1001.34 63.4978L1001.75 65.4566C1004.16 64.9597 1006.61 64.4317 1009.12 63.8717L1008.69 61.9198ZM996.006 68.1384C1000.49 66.6635 1004.89 65.2336 1009.21 63.848L1008.6 61.9435C1004.27 63.3308 999.867 64.7622 995.381 66.2386L996.006 68.1384ZM942.25 83.5922C957.99 79.8566 975.763 74.8005 996.006 68.1384L995.381 66.2386C975.182 72.8863 957.464 77.9259 941.788 81.6463L942.25 83.5922ZM639.304 86.4597C635.439 88.8216 632.151 91.1409 629.369 93.4203L630.637 94.9673C633.337 92.7552 636.547 90.4882 640.347 88.1663L639.304 86.4597ZM659.82 79.905C652.46 82.0953 645.703 84.2489 639.502 86.3667L640.149 88.2594C646.321 86.1511 653.053 84.0055 660.39 81.8219L659.82 79.905ZM812.046 77.1832C796.196 71.2287 780.337 65.2674 757.315 64.1349C734.309 63.0032 704.214 66.6936 659.82 79.905L660.39 81.8219C704.656 68.6486 734.513 65.0157 757.217 66.1325C779.903 67.2485 795.51 73.1075 811.343 79.0554L812.046 77.1832ZM941.788 81.6463C905.6 90.2351 880.313 91.7893 860.526 89.8747C840.744 87.9606 826.403 82.5764 812.046 77.1832L811.343 79.0554C825.707 84.4512 840.265 89.9235 860.334 91.8654C880.398 93.8068 905.913 92.2164 942.25 83.5922L941.788 81.6463ZM940.902 84.039C941.38 83.8819 941.856 83.7254 942.331 83.5694L941.707 81.6691C941.232 81.8253 940.755 81.982 940.277 82.1392L940.902 84.039ZM766.557 94.3431C783.066 100.545 799.82 106.842 825.899 107.126C851.948 107.41 887.24 101.699 940.902 84.039L940.277 82.1392C886.722 99.7645 851.664 105.407 825.921 105.126C800.21 104.846 783.731 98.6585 767.26 92.4708L766.557 94.3431ZM630.278 95.1554C669.701 83.901 696.519 80.9924 717.079 82.2358C737.625 83.4784 751.984 88.8688 766.557 94.3431L767.26 92.4708C752.674 86.9914 738.071 81.5017 717.2 80.2394C696.341 78.978 669.286 81.9396 629.729 93.2322L630.278 95.1554ZM578.464 150.774C580.2 154.727 581.725 158.227 582.008 161.468C582.28 164.587 581.398 167.484 578.126 170.28L579.425 171.801C583.193 168.581 584.328 165.051 584 161.294C583.683 157.657 581.991 153.831 580.295 149.97L578.464 150.774ZM602.072 101.938C584.134 111.473 576.613 120.302 574.47 128.609C572.333 136.891 575.644 144.352 578.464 150.774L580.295 149.97C577.43 143.445 574.468 136.62 576.406 129.109C578.338 121.622 585.242 113.149 603.011 103.704L602.072 101.938ZM623.534 95.0387C615.73 97.3611 608.643 99.6401 602.213 101.876L602.87 103.765C609.268 101.54 616.325 99.2705 624.104 96.9556L623.534 95.0387ZM629.729 93.2322C627.697 93.8122 625.632 94.4142 623.534 95.0387L624.104 96.9556C626.196 96.3331 628.253 95.7333 630.278 95.1554L629.729 93.2322ZM622.591 134.558C620.048 128.767 617.419 122.74 617.71 116.234C617.996 109.811 621.15 102.741 630.637 94.9673L629.369 93.4203C619.567 101.453 616.03 109.012 615.712 116.145C615.397 123.193 618.249 129.646 620.759 135.362L622.591 134.558ZM578.943 172.026C592.636 169.696 602.632 167.206 609.816 164.533C616.985 161.865 621.46 158.976 623.986 155.777C626.557 152.522 627.028 149.052 626.434 145.477C625.851 141.967 624.229 138.289 622.591 134.558L620.759 135.362C622.427 139.159 623.927 142.592 624.461 145.805C624.984 148.953 624.565 151.818 622.417 154.538C620.224 157.315 616.151 160.041 609.119 162.658C602.102 165.27 592.245 167.734 578.608 170.054L578.943 172.026ZM549.933 174.768C549.478 177.169 547.944 179.54 544.361 181.867L545.45 183.545C549.355 181.008 551.314 178.219 551.898 175.141L549.933 174.768ZM552.497 173.758L550.796 173.962L551.034 175.947L552.735 175.743L552.497 173.758ZM578.608 170.054C571.095 171.333 562.442 172.567 552.497 173.758L552.735 175.743C562.705 174.55 571.391 173.311 578.943 172.026L578.608 170.054ZM545.089 183.689C563.811 180.184 574.183 176.28 579.425 171.801L578.126 170.28C573.328 174.38 563.445 178.217 544.721 181.723L545.089 183.689ZM1292.95 168.61C1299.78 158.343 1302.66 147.207 1299.19 135.961C1295.72 124.748 1286.01 113.647 1268.17 103.27L1267.17 104.999C1284.78 115.246 1294.02 126.008 1297.28 136.552C1300.52 147.062 1297.89 157.575 1291.29 167.503L1292.95 168.61ZM1268.17 103.27C1260.33 98.7067 1252.95 94.3043 1245.9 90.0996L1244.87 91.8171C1251.92 96.0212 1259.31 100.429 1267.17 104.999L1268.17 103.27ZM1245.9 90.0996L1243.57 88.7106L1242.55 90.4282L1244.87 91.8171L1245.9 90.0996ZM1243.05 88.5694C1216.65 88.8426 1193.93 96.9104 1169.57 108.799L1170.45 110.596C1194.68 98.7658 1217.1 90.8381 1243.07 90.5693L1243.05 88.5694ZM1170.14 108.706C1141.59 104.947 1118.44 110.727 1094.39 121.363L1095.2 123.192C1119.02 112.654 1141.8 106.992 1169.88 110.689L1170.14 108.706ZM1094.84 121.278C1058.57 119.516 1030.86 134.518 995.161 153.809L996.112 155.568C1031.89 136.233 1059.12 121.545 1094.74 123.276L1094.84 121.278ZM995.161 153.809C959.985 172.818 916.869 196.116 849.785 212.193L850.251 214.138C917.599 197.998 960.903 174.595 996.112 155.568L995.161 153.809ZM849.918 212.171C806.015 216.575 778.8 216.826 759.624 214.908C740.479 212.994 729.32 208.917 717.485 204.592L716.799 206.471C728.678 210.811 740.026 214.958 759.425 216.898C778.792 218.835 806.158 218.57 850.118 214.161L849.918 212.171ZM717.485 204.592C704.888 199.989 691.557 195.119 667.252 192.356C642.978 189.596 607.777 188.94 551.406 192.711L551.539 194.706C607.854 190.94 642.921 191.603 667.026 194.343C691.101 197.08 704.262 201.89 716.799 206.471L717.485 204.592ZM551.406 192.711C528.767 194.225 511.613 196.302 499.021 198.848C486.468 201.385 478.313 204.414 473.798 207.92L475.024 209.5C479.149 206.296 486.908 203.337 499.417 200.808C511.886 198.287 528.943 196.218 551.539 194.706L551.406 192.711ZM474.252 207.723C459.66 210.075 450.151 212.976 444.749 216.379L445.815 218.071C450.852 214.899 460.013 212.044 474.57 209.697L474.252 207.723ZM445.457 218.21C452.387 216.981 460.727 215.891 470.644 214.958L470.457 212.967C460.502 213.903 452.106 214.999 445.108 216.24L445.457 218.21ZM471.52 214.209C471.915 212.656 472.995 211.075 475.024 209.5L473.798 207.92C471.537 209.676 470.119 211.605 469.582 213.715L471.52 214.209ZM474.57 209.697C485.078 208.003 498.338 206.582 514.784 205.482L514.65 203.487C498.167 204.589 484.841 206.016 474.252 207.723L474.57 209.697ZM514.784 205.482C566.653 202.013 598.947 202.624 621.144 205.147C643.31 207.667 655.425 212.095 666.97 216.314L667.657 214.435C656.051 210.195 643.765 205.706 621.37 203.16C599.004 200.618 566.576 200.014 514.65 203.487L514.784 205.482ZM666.97 216.314C679.445 220.872 691.265 225.189 714.124 226.544C736.936 227.895 770.732 226.297 827.204 219.101L826.951 217.117C770.517 224.308 736.868 225.888 714.242 224.547C691.664 223.209 680.055 218.965 667.657 214.435L666.97 216.314ZM827.204 219.101C827.524 219.06 827.844 219.019 828.163 218.978L827.908 216.994C827.589 217.035 827.27 217.076 826.951 217.117L827.204 219.101ZM828.231 218.967C835.848 217.446 843.182 215.832 850.251 214.138L849.785 212.193C842.741 213.881 835.432 215.49 827.84 217.005L828.231 218.967ZM850.118 214.161C857.793 213.391 865.975 212.494 874.709 211.461L874.474 209.475C865.75 210.507 857.58 211.402 849.918 212.171L850.118 214.161ZM1053.54 142.162C1012.06 164.574 960.148 192.628 874.398 209.487L874.784 211.449C960.836 194.531 1012.96 166.36 1054.49 143.921L1053.54 142.162ZM1094.39 121.363C1081.37 127.118 1068.08 134.302 1053.54 142.162L1054.49 143.921C1069.05 136.053 1082.27 128.909 1095.2 123.192L1094.39 121.363ZM1111.39 123.171C1105.66 122.155 1100.16 121.537 1094.84 121.278L1094.74 123.276C1099.97 123.53 1105.39 124.139 1111.04 125.141L1111.39 123.171ZM1132.6 128.604C1126.76 126.484 1119.76 124.655 1111.39 123.171L1111.04 125.141C1119.32 126.609 1126.21 128.412 1131.92 130.484L1132.6 128.604ZM1136.49 126.122C1134.94 126.962 1133.37 127.81 1131.78 128.664L1132.73 130.424C1134.32 129.57 1135.89 128.722 1137.44 127.881L1136.49 126.122ZM1169.57 108.799C1159 113.956 1148.12 119.839 1136.49 126.122L1137.44 127.881C1149.08 121.594 1159.93 115.732 1170.45 110.596L1169.57 108.799ZM1176.63 109.71C1174.44 109.321 1172.27 108.987 1170.14 108.706L1169.88 110.689C1171.98 110.966 1174.11 111.296 1176.28 111.68L1176.63 109.71ZM1227.82 146.273C1227.14 138.411 1224.03 130.934 1216.16 124.585C1208.34 118.272 1195.89 113.125 1176.63 109.71L1176.28 111.68C1195.39 115.067 1207.46 120.132 1214.91 126.141C1222.3 132.112 1225.19 139.066 1225.83 146.445L1227.82 146.273ZM1178.56 161.857C1197.11 155.579 1213.18 150.472 1227.04 147.334L1226.6 145.384C1212.63 148.547 1196.47 153.684 1177.92 159.962L1178.56 161.857ZM1158.78 158.735C1166.12 158.522 1172.43 159.476 1177.85 161.827L1178.64 159.992C1172.88 157.492 1166.26 156.517 1158.72 156.736L1158.78 158.735ZM1159.45 167.81C1159.87 164.406 1160.05 160.996 1159.75 157.647L1157.75 157.824C1158.04 160.99 1157.88 164.252 1157.47 167.563L1159.45 167.81ZM1158.06 168.882L1158.78 168.632L1158.13 166.741L1157.41 166.991L1158.06 168.882ZM1158.05 168.886L1158.06 168.882L1157.41 166.991L1157.4 166.994L1158.05 168.886ZM1124.05 180.472C1136.1 176.449 1147.42 172.547 1158.05 168.886L1157.4 166.995C1146.77 170.657 1135.45 174.555 1123.41 178.574L1124.05 180.472ZM1106.21 170.481C1112.91 171.91 1118.45 175.007 1122.98 180.182L1124.48 178.864C1119.65 173.345 1113.72 170.038 1106.62 168.525L1106.21 170.481ZM1073.46 181.692C1085.5 177.545 1096.56 173.734 1106.72 170.455L1106.11 168.552C1095.93 171.838 1084.84 175.656 1072.81 179.801L1073.46 181.692ZM858.943 237.785C951.599 223.68 1021.52 199.588 1073.46 181.692L1072.81 179.801C1020.89 197.692 951.107 221.732 858.642 235.808L858.943 237.785ZM840.42 239.303C846.652 238.845 852.806 238.341 858.883 237.793L858.703 235.801C852.637 236.348 846.494 236.851 840.273 237.309L840.42 239.303ZM818.262 243.123C825.848 241.911 833.269 240.63 840.528 239.29L840.165 237.323C832.921 238.661 825.516 239.939 817.947 241.148L818.262 243.123ZM705.663 249.426C746.163 249.278 783.612 246.951 818.214 243.129L817.995 241.141C783.462 244.955 746.083 247.279 705.656 247.426L705.663 249.426ZM653.365 250.122C667.233 249.741 684.527 249.503 705.663 249.426L705.656 247.426C684.51 247.503 667.199 247.741 653.31 248.123L653.365 250.122ZM652.911 250.027C654.6 250.823 657.283 251.636 660.777 252.471C664.29 253.311 668.686 254.188 673.841 255.098L674.189 253.128C669.054 252.222 664.701 251.353 661.242 250.526C657.764 249.694 655.253 248.92 653.764 248.218L652.911 250.027ZM674.025 255.113C727.68 254.551 775.577 249.94 818.262 243.123L817.947 241.148C775.354 247.951 727.556 252.552 674.004 253.113L674.025 255.113ZM818.214 243.129C832.255 241.579 845.827 239.782 858.943 237.785L858.642 235.808C845.552 237.801 832.008 239.594 817.995 241.141L818.214 243.129ZM858.883 237.793C972.256 227.57 1058.81 202.247 1124.05 180.472L1123.41 178.574C1058.25 200.324 971.863 225.597 858.703 235.801L858.883 237.793ZM1122.98 180.182C1130.55 188.83 1135.41 203.386 1137.95 225.992L1139.94 225.769C1137.38 203.072 1132.47 187.993 1124.48 178.864L1122.98 180.182ZM1137.95 225.992C1139.86 242.957 1149.64 255.487 1164.6 264.585C1179.53 273.662 1199.66 279.358 1222.46 282.718C1268.08 289.441 1324.71 286.868 1372.64 282.971L1372.47 280.978C1324.56 284.874 1268.13 287.426 1222.76 280.74C1200.07 277.396 1180.23 271.753 1165.64 262.876C1151.07 254.018 1141.76 241.976 1139.94 225.769L1137.95 225.992ZM1372.54 280.974C1331.68 281.414 1291.65 278.7 1261.11 269.367C1230.55 260.027 1209.83 244.18 1206.85 218.554L1204.86 218.785C1207.98 245.617 1229.71 261.862 1260.53 271.28C1291.37 280.705 1331.64 283.414 1372.57 282.974L1372.54 280.974ZM1206.06 219.648C1215.34 217.689 1225.14 214.635 1234.77 210.704L1234.01 208.853C1224.48 212.742 1214.8 215.76 1205.65 217.691L1206.06 219.648ZM1233.98 210.689C1234.74 211.034 1235.53 211.366 1236.37 211.683L1237.08 209.814C1236.28 209.511 1235.52 209.195 1234.8 208.868L1233.98 210.689ZM1236.37 211.683C1243.91 214.555 1254 215.07 1265.25 213.743C1276.52 212.413 1289.04 209.224 1301.5 204.599L1300.8 202.724C1288.47 207.305 1276.1 210.449 1265.02 211.757C1253.91 213.067 1244.19 212.522 1237.08 209.814L1236.37 211.683ZM1302.14 203.53C1300.16 188.576 1297.17 176.759 1293.03 167.643L1291.21 168.47C1295.24 177.339 1298.19 188.943 1300.16 203.794L1302.14 203.53ZM1293.03 167.643C1287.12 154.651 1278.84 147.126 1267.77 143.866C1256.77 140.629 1243.14 141.641 1226.6 145.384L1227.04 147.334C1243.49 143.612 1256.71 142.696 1267.2 145.785C1277.63 148.852 1285.5 155.909 1291.21 168.47L1293.03 167.643ZM1225.83 146.445C1226.5 154.236 1224.68 162.494 1222.87 170.642L1224.82 171.075C1226.62 162.995 1228.53 154.425 1227.82 146.273L1225.83 146.445ZM1222.89 170.574L1222.89 170.575L1224.8 171.144L1224.8 171.142L1222.89 170.574ZM1222.87 170.643C1221.1 178.635 1219.32 186.574 1220.25 193.515C1220.72 197.017 1221.89 200.296 1224.09 203.22C1226.3 206.141 1229.5 208.654 1233.98 210.689L1234.8 208.868C1230.57 206.942 1227.65 204.62 1225.69 202.015C1223.72 199.413 1222.67 196.474 1222.24 193.248C1221.36 186.733 1223.02 179.174 1224.82 171.076L1222.87 170.643ZM1234.77 210.704C1258.52 201.012 1281.43 185.922 1292.95 168.61L1291.29 167.503C1280.09 184.334 1257.6 199.228 1234.01 208.853L1234.77 210.704ZM1206.85 218.557L1206.84 218.47L1204.85 218.696L1204.86 218.783L1206.85 218.557ZM1206.84 218.47L1206.82 218.35L1204.84 218.576L1204.85 218.696L1206.84 218.47ZM1206.82 218.351C1203.04 184.682 1194.35 166.811 1178.64 159.992L1177.85 161.827C1192.45 168.17 1201.05 184.959 1204.84 218.575L1206.82 218.351ZM1177.92 159.962C1171.61 162.099 1165.02 164.37 1158.13 166.741L1158.78 168.632C1165.67 166.261 1172.26 163.992 1178.56 161.857L1177.92 159.962ZM1157.47 167.563C1156.92 171.933 1155.94 176.349 1154.97 180.727L1156.92 181.16C1157.89 176.799 1158.89 172.29 1159.45 167.81L1157.47 167.563ZM1154.98 180.705L1154.98 180.708L1156.92 181.186L1156.92 181.183L1154.98 180.705ZM1154.97 180.73C1153.23 188.586 1151.48 196.41 1152.63 203.177C1153.21 206.599 1154.54 209.773 1156.98 212.562C1159.41 215.345 1162.91 217.69 1167.75 219.534L1168.46 217.665C1163.84 215.907 1160.65 213.725 1158.48 211.246C1156.32 208.773 1155.13 205.954 1154.6 202.841C1153.53 196.541 1155.15 189.139 1156.92 181.163L1154.97 180.73ZM1167.75 219.534C1177.25 223.151 1191.04 222.82 1206.06 219.648L1205.65 217.691C1190.75 220.837 1177.41 221.075 1168.46 217.665L1167.75 219.534ZM487.697 197.196C504.084 195.234 516.49 193.133 525.799 190.875C535.094 188.621 541.371 186.194 545.45 183.545L544.361 181.867C540.563 184.334 534.544 186.696 525.328 188.931C516.126 191.163 503.807 193.253 487.459 195.211L487.697 197.196ZM357.02 217.416C386.561 210.297 430.676 204.024 487.697 197.196L487.459 195.211C430.451 202.037 386.223 208.321 356.551 215.472L357.02 217.416ZM361.022 211.872C359.109 213.114 357.461 214.396 356.09 215.726L357.482 217.162C358.742 215.94 360.283 214.736 362.111 213.549L361.022 211.872ZM515.651 186.03C444.233 194.582 391.728 202.331 361.271 211.755L361.862 213.666C392.113 204.306 444.424 196.573 515.889 188.016L515.651 186.03ZM544.721 181.723C536.712 183.223 527.115 184.657 515.651 186.03L515.889 188.016C527.383 186.639 537.026 185.199 545.089 183.689L544.721 181.723ZM162.21 214.889C172.441 216.914 182.684 218.942 190.92 221.045C195.039 222.097 198.63 223.162 201.453 224.245C204.318 225.345 206.245 226.412 207.179 227.402L208.634 226.03C207.363 224.683 205.055 223.486 202.169 222.378C199.241 221.254 195.565 220.168 191.415 219.108C183.115 216.988 172.812 214.949 162.599 212.927L162.21 214.889ZM162.263 214.898L162.263 214.898L162.546 212.918L162.546 212.918L162.263 214.898ZM119.83 203.94C123.295 205.933 129.505 207.788 136.952 209.575C144.439 211.371 153.319 213.129 162.21 214.889L162.598 212.927C153.696 211.165 144.859 209.415 137.418 207.63C129.937 205.835 124.005 204.034 120.827 202.206L119.83 203.94ZM135.205 198.552C128.752 199.779 123.757 200.965 120.033 202.117L120.625 204.028C124.248 202.906 129.162 201.737 135.579 200.517L135.205 198.552ZM141.963 197.322C139.822 197.693 137.572 198.102 135.205 198.552L135.579 200.517C137.936 200.068 140.175 199.661 142.304 199.293L141.963 197.322ZM169.171 202.958C159.719 201.087 150.333 199.229 142.365 197.335L141.903 199.28C149.915 201.185 159.342 203.051 168.783 204.92L169.171 202.958ZM208.198 227.673C211.972 226.521 214.79 225.387 216.738 224.255C218.634 223.153 219.941 221.917 220.246 220.456C220.573 218.888 219.674 217.556 218.401 216.505C217.11 215.438 215.196 214.447 212.865 213.509C203.55 209.758 186.209 206.331 169.171 202.958L168.783 204.92C185.924 208.313 203.024 211.703 212.118 215.364C214.389 216.278 216.075 217.177 217.127 218.047C218.198 218.931 218.386 219.58 218.288 220.047C218.168 220.621 217.539 221.476 215.733 222.526C213.979 223.545 211.329 224.626 207.614 225.76L208.198 227.673ZM191.288 231.556C193.041 232.251 194.409 232.937 195.358 233.606C196.338 234.297 196.702 234.852 196.774 235.229L198.738 234.851C198.515 233.694 197.614 232.75 196.511 231.971C195.376 231.171 193.842 230.417 192.025 229.697L191.288 231.556ZM194.469 229.034C193.468 229.246 192.467 229.449 191.465 229.645L191.848 231.608C192.86 231.41 193.872 231.205 194.882 230.991L194.469 229.034ZM207.614 225.76C204.156 226.815 199.81 227.906 194.468 229.034L194.882 230.991C200.26 229.855 204.666 228.751 208.198 227.673L207.614 225.76ZM198.042 235.998C203.096 234.49 206.429 233.003 208.185 231.463C209.077 230.681 209.683 229.78 209.759 228.75C209.837 227.705 209.35 226.79 208.634 226.03L207.179 227.402C207.673 227.926 207.786 228.317 207.765 228.602C207.742 228.903 207.553 229.357 206.867 229.959C205.467 231.187 202.513 232.577 197.47 234.082L198.042 235.998ZM52.1283 231.524C36.9382 228.787 24.5577 226.551 16.7156 226.69C14.7419 226.725 13.0081 226.91 11.5634 227.294C10.1225 227.677 8.90008 228.276 8.03021 229.191C6.19763 231.117 6.334 233.93 7.83246 237.345L9.66383 236.541C8.25065 233.321 8.52071 231.577 9.47919 230.569C10.0049 230.017 10.8423 229.555 12.0771 229.227C13.3081 228.9 14.8658 228.723 16.7511 228.69C24.3445 228.555 36.4771 230.736 51.7737 233.492L52.1283 231.524ZM52.1681 231.532L52.1679 231.532L51.7341 233.484L51.7343 233.484L52.1681 231.532ZM185.868 236.946C138.187 247.017 87.3202 237.864 52.1285 231.524L51.7739 233.492C86.9096 239.822 138.158 249.067 186.281 238.903L185.868 236.946ZM197.47 234.082C194.371 235.006 190.533 235.96 185.868 236.946L186.281 238.903C190.98 237.91 194.875 236.943 198.042 235.998L197.47 234.082ZM176.576 245.229C184.6 243.534 190.167 241.914 193.68 240.339C195.43 239.554 196.747 238.747 197.602 237.89C198.474 237.017 198.957 235.985 198.738 234.851L196.774 235.229C196.825 235.494 196.772 235.89 196.186 236.478C195.584 237.081 194.524 237.768 192.862 238.514C189.551 239.998 184.155 241.584 176.163 243.272L176.576 245.229ZM49.5898 240.122C82.7538 246.098 131.14 254.827 176.576 245.229L176.163 243.272C131.168 252.776 83.1643 244.139 49.9444 238.154L49.5898 240.122ZM49.5877 240.122L49.5882 240.122L49.946 238.154L49.9455 238.154L49.5877 240.122ZM9.53904 237.555C10.1765 236.731 11.4723 236.101 13.6813 235.794C15.8574 235.491 18.7184 235.528 22.2204 235.836C29.221 236.454 38.5414 238.132 49.5893 240.122L49.9439 238.154C38.9332 236.17 29.5081 234.471 22.396 233.844C18.8417 233.531 15.8045 233.479 13.4056 233.813C11.0396 234.142 9.08358 234.875 7.95724 236.331L9.53904 237.555ZM7.95724 236.331C7.51308 236.905 7.21967 237.566 7.07868 238.303L9.04308 238.678C9.12758 238.237 9.29553 237.869 9.53905 237.555L7.95724 236.331ZM7.24296 239.066C12.7499 246.895 17.3069 252.576 21.0597 256.599L22.5223 255.235C18.8524 251.301 14.3535 245.698 8.8788 237.915L7.24296 239.066ZM22.5706 255.291C19.7491 251.779 16.5369 247.437 12.8894 242.11L11.2392 243.24C14.9087 248.599 18.1514 252.984 21.0114 256.544L22.5706 255.291ZM12.8894 242.11C11.4143 239.956 10.3529 238.111 9.66383 236.541L7.83246 237.345C8.58838 239.067 9.72202 241.025 11.2392 243.24L12.8894 242.11ZM321.064 228.28C316.472 231.235 313.525 234.502 312.613 238.193L314.554 238.673C315.288 235.704 317.735 232.8 322.146 229.962L321.064 228.28ZM314.374 239.045C316.784 235.932 319.459 232.848 322.332 229.808L320.878 228.435C317.968 231.514 315.249 234.647 312.793 237.821L314.374 239.045Z" fill="#14B8A6" fill-opacity="0.8"/>
</svg>
