<svg width="1440" height="1024" viewBox="0 0 1440 1024" fill="none" xmlns="http://www.w3.org/2000/svg">
<path d="M90 20.1047L45 0L0 20.1047V60.3141L45 80.4188L90 60.3141M90 20.1047V60.3141M90 20.1047L135 0L180 20.1047M90 60.3141L135 80.4188L180 60.3141M90 491.895L45 471.791L0 491.895V532.105L45 552.209L90 532.105M90 491.895V532.105M90 491.895L135 471.791L180 491.895M90 532.105L135 552.209L180 532.105M90 256L45 235.895L0 256V296.209L45 316.314L90 296.209M90 256V296.209M90 256L135 235.895L180 256M90 296.209L135 316.314L180 296.209M90 727.791L45 707.686L0 727.791V768L45 788.105L90 768M90 727.791V768M90 727.791L135 707.686L180 727.791M90 768L135 788.105L180 768M720 20.1047L765 0L810 20.1047M720 20.1047V60.3141M720 20.1047L675 0L630 20.1047M810 20.1047V60.3141M810 20.1047L855 0L900 20.1047M810 60.3141L765 80.4188L720 60.3141M810 60.3141L855 80.4188L900 60.3141M720 60.3141L675 80.4188L630 60.3141M720 491.895L765 471.791L810 491.895M720 491.895V532.105M720 491.895L675 471.791L630 491.895M810 491.895V532.105M810 491.895L855 471.791L900 491.895M810 532.105L765 552.209L720 532.105M810 532.105L855 552.209L900 532.105M720 532.105L675 552.209L630 532.105M720 256L765 235.895L810 256M720 256V296.209M720 256L675 235.895L630 256M810 256V296.209M810 256L855 235.895L900 256M810 296.209L765 316.314L720 296.209M810 296.209L855 316.314L900 296.209M720 296.209L675 316.314L630 296.209M720 727.791L765 707.686L810 727.791M720 727.791V768M720 727.791L675 707.686L630 727.791M810 727.791V768M810 727.791L855 707.686L900 727.791M810 768L765 788.105L720 768M810 768L855 788.105L900 768M720 768L675 788.105L630 768M360 20.1047L405 0L450 20.1047M360 20.1047V60.3141M360 20.1047L315 0L270 20.1047M450 20.1047V60.3141M450 20.1047L495 0L540 20.1047M450 60.3141L405 80.4188L360 60.3141M450 60.3141L495 80.4188L540 60.3141M360 60.3141L315 80.4188L270 60.3141M360 491.895L405 471.791L450 491.895M360 491.895V532.105M360 491.895L315 471.791L270 491.895M450 491.895V532.105M450 491.895L495 471.791L540 491.895M450 532.105L405 552.209L360 532.105M450 532.105L495 552.209L540 532.105M360 532.105L315 552.209L270 532.105M360 256L405 235.895L450 256M360 256V296.209M360 256L315 235.895L270 256M450 256V296.209M450 256L495 235.895L540 256M450 296.209L405 316.314L360 296.209M450 296.209L495 316.314L540 296.209M360 296.209L315 316.314L270 296.209M360 727.791L405 707.686L450 727.791M360 727.791V768M360 727.791L315 707.686L270 727.791M450 727.791V768M450 727.791L495 707.686L540 727.791M450 768L405 788.105L360 768M450 768L495 788.105L540 768M360 768L315 788.105L270 768M1080 20.1047L1125 0L1170 20.1047M1080 20.1047V60.3141M1080 20.1047L1035 0L990 20.1047M1170 20.1047V60.3141M1170 20.1047L1215 0L1260 20.1047M1170 60.3141L1125 80.4188L1080 60.3141M1170 60.3141L1215 80.4188L1260 60.3141M1080 60.3141L1035 80.4188L990 60.3141M1080 491.895L1125 471.791L1170 491.895M1080 491.895V532.105M1080 491.895L1035 471.791L990 491.895M1170 491.895V532.105M1170 491.895L1215 471.791L1260 491.895M1170 532.105L1125 552.209L1080 532.105M1170 532.105L1215 552.209L1260 532.105M1080 532.105L1035 552.209L990 532.105M1080 256L1125 235.895L1170 256M1080 256V296.209M1080 256L1035 235.895L990 256M1170 256V296.209M1170 256L1215 235.895L1260 256M1170 296.209L1125 316.314L1080 296.209M1170 296.209L1215 316.314L1260 296.209M1080 296.209L1035 316.314L990 296.209M1080 727.791L1125 707.686L1170 727.791M1080 727.791V768M1080 727.791L1035 707.686L990 727.791M1170 727.791V768M1170 727.791L1215 707.686L1260 727.791M1170 768L1125 788.105L1080 768M1170 768L1215 788.105L1260 768M1080 768L1035 788.105L990 768M180 20.1047L225 0L270 20.1047M180 20.1047V60.3141M270 20.1047V60.3141M270 60.3141L225 80.4188L180 60.3141M180 491.895L225 471.791L270 491.895M180 491.895V532.105M270 491.895V532.105M270 532.105L225 552.209L180 532.105M180 256L225 235.895L270 256M180 256V296.209M270 256V296.209M270 296.209L225 316.314L180 296.209M180 727.791L225 707.686L270 727.791M180 727.791V768M270 727.791V768M270 768L225 788.105L180 768M900 20.1047L945 0L990 20.1047M900 20.1047V60.3141M990 20.1047V60.3141M990 60.3141L945 80.4188L900 60.3141M900 491.895L945 471.791L990 491.895M900 491.895V532.105M990 491.895V532.105M990 532.105L945 552.209L900 532.105M900 256L945 235.895L990 256M900 256V296.209M990 256V296.209M990 296.209L945 316.314L900 296.209M900 727.791L945 707.686L990 727.791M900 727.791V768M990 727.791V768M990 768L945 788.105L900 768M540 20.1047L585 0L630 20.1047M540 20.1047V60.3141M630 20.1047V60.3141M630 60.3141L585 80.4188L540 60.3141M540 491.895L585 471.791L630 491.895M540 491.895V532.105M630 491.895V532.105M630 532.105L585 552.209L540 532.105M540 256L585 235.895L630 256M540 256V296.209M630 256V296.209M630 296.209L585 316.314L540 296.209M540 727.791L585 707.686L630 727.791M540 727.791V768M630 727.791V768M630 768L585 788.105L540 768M1260 20.1047L1305 0L1350 20.1047M1260 20.1047V60.3141M1350 20.1047V60.3141M1350 20.1047L1395 0L1440 20.1047V60.3141L1395 80.4188L1350 60.3141M1350 60.3141L1305 80.4188L1260 60.3141M1260 491.895L1305 471.791L1350 491.895M1260 491.895V532.105M1350 491.895V532.105M1350 491.895L1395 471.791L1440 491.895V532.105L1395 552.209L1350 532.105M1350 532.105L1305 552.209L1260 532.105M1260 256L1305 235.895L1350 256M1260 256V296.209M1350 256V296.209M1350 256L1395 235.895L1440 256V296.209L1395 316.314L1350 296.209M1350 296.209L1305 316.314L1260 296.209M1260 727.791L1305 707.686L1350 727.791M1260 727.791V768M1350 727.791V768M1350 727.791L1395 707.686L1440 727.791V768L1395 788.105L1350 768M1350 768L1305 788.105L1260 768M135 79.0785V119.288M45 119.288V79.0785M135 550.869V591.079M45 591.079V550.869M135 314.974V355.183M45 355.183V314.974M135 786.764V826.974M45 826.974V786.764M855 79.0785V119.288M765 119.288V79.0785M855 550.869V591.079M765 591.079V550.869M855 314.974V355.183M765 355.183V314.974M855 786.764V826.974M765 826.974V786.764M495 79.0785V119.288M405 119.288V79.0785M495 550.869V591.079M405 591.079V550.869M495 314.974V355.183M405 355.183V314.974M495 786.764V826.974M405 826.974V786.764M1215 79.0785V119.288M1125 119.288V79.0785M1215 550.869V591.079M1125 591.079V550.869M1215 314.974V355.183M1125 355.183V314.974M1215 786.764V826.974M1125 826.974V786.764M315 79.0785V119.288M225 119.288V79.0785M315 550.869V591.079M225 591.079V550.869M315 314.974V355.183M225 355.183V314.974M315 786.764V826.974M225 826.974V786.764M1035 79.0785V119.288M945 119.288V79.0785M1035 550.869V591.079M945 591.079V550.869M1035 314.974V355.183M945 355.183V314.974M1035 786.764V826.974M945 826.974V786.764M675 79.0785V119.288M585 119.288V79.0785M675 550.869V591.079M585 591.079V550.869M675 314.974V355.183M585 355.183V314.974M675 786.764V826.974M585 826.974V786.764M1395 79.0785V119.288M1305 119.288V79.0785M1395 550.869V591.079M1305 591.079V550.869M1395 314.974V355.183M1305 355.183V314.974M1395 786.764V826.974M1305 826.974V786.764M90 138.052L45 117.948L0 138.052V178.262L45 198.366L90 178.262M90 138.052V178.262M90 138.052L135 117.948L180 138.052M90 178.262L135 198.366L180 178.262M90 609.843L45 589.738L0 609.843V650.052L45 670.157L90 650.052M90 609.843V650.052M90 609.843L135 589.738L180 609.843M90 650.052L135 670.157L180 650.052M90 373.948L45 353.843L0 373.948V414.157L45 434.262L90 414.157M90 373.948V414.157M90 373.948L135 353.843L180 373.948M90 414.157L135 434.262L180 414.157M90 845.738L45 825.634L0 845.738V885.948L45 906.052L90 885.948M90 845.738V885.948M90 845.738L135 825.634L180 845.738M90 885.948L135 906.052L180 885.948M720 138.052L765 117.948L810 138.052M720 138.052V178.262M720 138.052L675 117.948L630 138.052M810 138.052V178.262M810 138.052L855 117.948L900 138.052M810 178.262L765 198.366L720 178.262M810 178.262L855 198.366L900 178.262M720 178.262L675 198.366L630 178.262M720 609.843L765 589.738L810 609.843M720 609.843V650.052M720 609.843L675 589.738L630 609.843M810 609.843V650.052M810 609.843L855 589.738L900 609.843M810 650.052L765 670.157L720 650.052M810 650.052L855 670.157L900 650.052M720 650.052L675 670.157L630 650.052M720 373.948L765 353.843L810 373.948M720 373.948V414.157M720 373.948L675 353.843L630 373.948M810 373.948V414.157M810 373.948L855 353.843L900 373.948M810 414.157L765 434.262L720 414.157M810 414.157L855 434.262L900 414.157M720 414.157L675 434.262L630 414.157M720 845.738L765 825.634L810 845.738M720 845.738V885.948M720 845.738L675 825.634L630 845.738M810 845.738V885.948M810 845.738L855 825.634L900 845.738M810 885.948L765 906.052L720 885.948M810 885.948L855 906.052L900 885.948M720 885.948L675 906.052L630 885.948M360 138.052L405 117.948L450 138.052M360 138.052V178.262M360 138.052L315 117.948L270 138.052M450 138.052V178.262M450 138.052L495 117.948L540 138.052M450 178.262L405 198.366L360 178.262M450 178.262L495 198.366L540 178.262M360 178.262L315 198.366L270 178.262M360 609.843L405 589.738L450 609.843M360 609.843V650.052M360 609.843L315 589.738L270 609.843M450 609.843V650.052M450 609.843L495 589.738L540 609.843M450 650.052L405 670.157L360 650.052M450 650.052L495 670.157L540 650.052M360 650.052L315 670.157L270 650.052M360 373.948L405 353.843L450 373.948M360 373.948V414.157M360 373.948L315 353.843L270 373.948M450 373.948V414.157M450 373.948L495 353.843L540 373.948M450 414.157L405 434.262L360 414.157M450 414.157L495 434.262L540 414.157M360 414.157L315 434.262L270 414.157M360 845.738L405 825.634L450 845.738M360 845.738V885.948M360 845.738L315 825.634L270 845.738M450 845.738V885.948M450 845.738L495 825.634L540 845.738M450 885.948L405 906.052L360 885.948M450 885.948L495 906.052L540 885.948M360 885.948L315 906.052L270 885.948M1080 138.052L1125 117.948L1170 138.052M1080 138.052V178.262M1080 138.052L1035 117.948L990 138.052M1170 138.052V178.262M1170 138.052L1215 117.948L1260 138.052M1170 178.262L1125 198.366L1080 178.262M1170 178.262L1215 198.366L1260 178.262M1080 178.262L1035 198.366L990 178.262M1080 609.843L1125 589.738L1170 609.843M1080 609.843V650.052M1080 609.843L1035 589.738L990 609.843M1170 609.843V650.052M1170 609.843L1215 589.738L1260 609.843M1170 650.052L1125 670.157L1080 650.052M1170 650.052L1215 670.157L1260 650.052M1080 650.052L1035 670.157L990 650.052M1080 373.948L1125 353.843L1170 373.948M1080 373.948V414.157M1080 373.948L1035 353.843L990 373.948M1170 373.948V414.157M1170 373.948L1215 353.843L1260 373.948M1170 414.157L1125 434.262L1080 414.157M1170 414.157L1215 434.262L1260 414.157M1080 414.157L1035 434.262L990 414.157M1080 845.738L1125 825.634L1170 845.738M1080 845.738V885.948M1080 845.738L1035 825.634L990 845.738M1170 845.738V885.948M1170 845.738L1215 825.634L1260 845.738M1170 885.948L1125 906.052L1080 885.948M1170 885.948L1215 906.052L1260 885.948M1080 885.948L1035 906.052L990 885.948M180 138.052L225 117.948L270 138.052M180 138.052V178.262M270 138.052V178.262M270 178.262L225 198.366L180 178.262M180 609.843L225 589.738L270 609.843M180 609.843V650.052M270 609.843V650.052M270 650.052L225 670.157L180 650.052M180 373.948L225 353.843L270 373.948M180 373.948V414.157M270 373.948V414.157M270 414.157L225 434.262L180 414.157M180 845.738L225 825.634L270 845.738M180 845.738V885.948M270 845.738V885.948M270 885.948L225 906.052L180 885.948M900 138.052L945 117.948L990 138.052M900 138.052V178.262M990 138.052V178.262M990 178.262L945 198.366L900 178.262M900 609.843L945 589.738L990 609.843M900 609.843V650.052M990 609.843V650.052M990 650.052L945 670.157L900 650.052M900 373.948L945 353.843L990 373.948M900 373.948V414.157M990 373.948V414.157M990 414.157L945 434.262L900 414.157M900 845.738L945 825.634L990 845.738M900 845.738V885.948M990 845.738V885.948M990 885.948L945 906.052L900 885.948M540 138.052L585 117.948L630 138.052M540 138.052V178.262M630 138.052V178.262M630 178.262L585 198.366L540 178.262M540 609.843L585 589.738L630 609.843M540 609.843V650.052M630 609.843V650.052M630 650.052L585 670.157L540 650.052M540 373.948L585 353.843L630 373.948M540 373.948V414.157M630 373.948V414.157M630 414.157L585 434.262L540 414.157M540 845.738L585 825.634L630 845.738M540 845.738V885.948M630 845.738V885.948M630 885.948L585 906.052L540 885.948M1260 138.052L1305 117.948L1350 138.052M1260 138.052V178.262M1350 138.052V178.262M1350 138.052L1395 117.948L1440 138.052V178.262L1395 198.366L1350 178.262M1350 178.262L1305 198.366L1260 178.262M1260 609.843L1305 589.738L1350 609.843M1260 609.843V650.052M1350 609.843V650.052M1350 609.843L1395 589.738L1440 609.843V650.052L1395 670.157L1350 650.052M1350 650.052L1305 670.157L1260 650.052M1260 373.948L1305 353.843L1350 373.948M1260 373.948V414.157M1350 373.948V414.157M1350 373.948L1395 353.843L1440 373.948V414.157L1395 434.262L1350 414.157M1350 414.157L1305 434.262L1260 414.157M1260 845.738L1305 825.634L1350 845.738M1260 845.738V885.948M1350 845.738V885.948M1350 845.738L1395 825.634L1440 845.738V885.948L1395 906.052L1350 885.948M1350 885.948L1305 906.052L1260 885.948M135 197.026V237.236M45 237.236V197.026M135 668.817V709.026M45 709.026V668.817M135 432.921V473.131M45 473.131V432.921M135 904.712V944.921M45 944.921V904.712M855 197.026V237.236M765 237.236V197.026M855 668.817V709.026M765 709.026V668.817M855 432.921V473.131M765 473.131V432.921M855 904.712V944.921M765 944.921V904.712M495 197.026V237.236M405 237.236V197.026M495 668.817V709.026M405 709.026V668.817M495 432.921V473.131M405 473.131V432.921M495 904.712V944.921M405 944.921V904.712M1215 197.026V237.236M1125 237.236V197.026M1215 668.817V709.026M1125 709.026V668.817M1215 432.921V473.131M1125 473.131V432.921M1215 904.712V944.921M1125 944.921V904.712M315 197.026V237.236M225 237.236V197.026M315 668.817V709.026M225 709.026V668.817M315 432.921V473.131M225 473.131V432.921M315 904.712V944.921M225 944.921V904.712M1035 197.026V237.236M945 237.236V197.026M1035 668.817V709.026M945 709.026V668.817M1035 432.921V473.131M945 473.131V432.921M1035 904.712V944.921M945 944.921V904.712M675 197.026V237.236M585 237.236V197.026M675 668.817V709.026M585 709.026V668.817M675 432.921V473.131M585 473.131V432.921M675 904.712V944.921M585 944.921V904.712M1395 197.026V237.236M1305 237.236V197.026M1395 668.817V709.026M1305 709.026V668.817M1395 432.921V473.131M1305 473.131V432.921M1395 904.712V944.921M1305 944.921V904.712M90 963.686L45 943.581L0 963.686V1003.9L45 1024L90 1003.9M90 963.686V1003.9M90 963.686L135 943.581L180 963.686M90 1003.9L135 1024L180 1003.9M720 963.686L765 943.581L810 963.686M720 963.686V1003.9M720 963.686L675 943.581L630 963.686M810 963.686V1003.9M810 963.686L855 943.581L900 963.686M810 1003.9L765 1024L720 1003.9M810 1003.9L855 1024L900 1003.9M720 1003.9L675 1024L630 1003.9M360 963.686L405 943.581L450 963.686M360 963.686V1003.9M360 963.686L315 943.581L270 963.686M450 963.686V1003.9M450 963.686L495 943.581L540 963.686M450 1003.9L405 1024L360 1003.9M450 1003.9L495 1024L540 1003.9M360 1003.9L315 1024L270 1003.9M1080 963.686L1125 943.581L1170 963.686M1080 963.686V1003.9M1080 963.686L1035 943.581L990 963.686M1170 963.686V1003.9M1170 963.686L1215 943.581L1260 963.686M1170 1003.9L1125 1024L1080 1003.9M1170 1003.9L1215 1024L1260 1003.9M1080 1003.9L1035 1024L990 1003.9M180 963.686L225 943.581L270 963.686M180 963.686V1003.9M270 963.686V1003.9M270 1003.9L225 1024L180 1003.9M900 963.686L945 943.581L990 963.686M900 963.686V1003.9M990 963.686V1003.9M990 1003.9L945 1024L900 1003.9M540 963.686L585 943.581L630 963.686M540 963.686V1003.9M630 963.686V1003.9M630 1003.9L585 1024L540 1003.9M1260 963.686L1305 943.581L1350 963.686M1260 963.686V1003.9M1350 963.686V1003.9M1350 963.686L1395 943.581L1440 963.686V1003.9L1395 1024L1350 1003.9M1350 1003.9L1305 1024L1260 1003.9" stroke="#14B8A6" stroke-opacity="0.1"/>
</svg>
